<svg xmlns="http://www.w3.org/2000/svg" width="370.538" height="553.86" viewBox="0 0 370.538 553.86">
  <g id="pro-vigil-icon" transform="translate(0 0)">
    <g id="Group_477" data-name="Group 477" transform="translate(0 0)">
      <g id="Group_30" data-name="Group 30" transform="translate(96.626 246.014)">
        <path id="Path_33" data-name="Path 33" d="M114.2,74.549A46.9,46.9,0,1,1,67.305,27.622,46.95,46.95,0,0,1,114.2,74.549m-134.957,0a88.074,88.074,0,1,0,88.064-88.1,88.19,88.19,0,0,0-88.064,88.1" transform="translate(20.759 13.551)" fill="#004a6f"/>
      </g>
      <g id="Group_31" data-name="Group 31" transform="translate(263.719 216.177)">
        <path id="Path_34" data-name="Path 34" d="M14.693,29.273A17.3,17.3,0,1,0-2.671,12,17.284,17.284,0,0,0,14.693,29.273" transform="translate(2.671 5.321)" fill="#004a6f"/>
      </g>
      <g id="Group_32" data-name="Group 32" transform="translate(0 0)">
        <path id="Path_35" data-name="Path 35" d="M278.681,311.89c0,59.676-97.127,119.17-144.078,141.945C87.62,431.061-9.5,371.567-9.5,311.89V145.24c20.882-8.081,70.856-23.763,146.646-23.763,74.5,0,121.922,15.473,141.536,23.477ZM75.482,80.818V42.635a58.175,58.175,0,0,1,116.351,0v39.34a7.194,7.194,0,0,0,.1,1.105,527.057,527.057,0,0,0-54.785-2.75A552.744,552.744,0,0,0,75.19,83.815a23.291,23.291,0,0,0,.293-3M309.51,113.955c-1.567-.923-27.675-15.389-77.818-25.1a20,20,0,0,0,1.274-6.885V42.635a99.347,99.347,0,0,0-198.694,0V80.818A20.358,20.358,0,0,0,36.449,89.8c-48.089,9.525-74.431,22.9-76.05,23.782a20.418,20.418,0,0,0-11.058,18.2V311.89c0,101.363,158.744,175.388,176.811,183.476a20.625,20.625,0,0,0,16.857,0c18.106-8.088,176.869-82.113,176.869-183.476V131.782a20.571,20.571,0,0,0-10.369-17.827" transform="translate(50.659 56.693)" fill="#004a6f"/>
      </g>
    </g>
  </g>
</svg>
