<?xml version="1.0" standalone="no"?>
<!DOCTYPE svg PUBLIC "-//W3C//DTD SVG 1.1//EN" "http://www.w3.org/Graphics/SVG/1.1/DTD/svg11.dtd" >
<svg xmlns="http://www.w3.org/2000/svg">
<metadata>Generated by IcoMoon</metadata>
<defs>
<font id="PRO-VIGIL" horiz-adv-x="1024">
<font-face units-per-em="1024" ascent="960" descent="-64" />
<missing-glyph horiz-adv-x="1024" />
<glyph unicode="&#x20;" horiz-adv-x="512" d="" />
<glyph unicode="&#xe900;" glyph-name="bell" d="M827.238 261.734c0-26.906-21.811-48.717-48.717-48.717v0h-555.955c-26.891 0-48.691 21.8-48.691 48.691 0 0.009 0 0.018 0 0.027v-0.001 5.734c0 26.88 21.76 48.717 48.691 48.717h555.93c26.88 0 48.717-21.811 48.717-48.717v-5.734zM520.397 109.824h-45.85c-55.552 0-59.597 4.608-59.904 57.318h182.886c-2.176-49.485-17.971-57.344-77.133-57.344zM493.67 786.15h16.486c128.179 0 236.851-105.344 236.851-234.88v-189.235h-481.434v189.235c0 129.536 99.891 234.88 228.096 234.88zM792.832 360.602v190.669c0 154.778-129.203 280.73-282.675 280.73h-16.486c-153.446 0-273.946-125.952-273.946-280.73v-189.517c-50.942-1.496-91.675-43.126-91.725-94.28v-5.739c0-0.008 0-0.017 0-0.026 0-52.213 42.327-94.541 94.541-94.541h146.304c1.357-72.499 16.128-103.168 105.677-103.168h45.824c85.222 0 119.219 25.958 122.752 103.168h135.398c52.228 0 94.566 42.339 94.566 94.566v0 5.734c-0.062 47.067-34.593 86.050-79.701 93.065l-0.53 0.068zM563.046 709.504c72.551-32.269 122.226-103.708 122.24-186.75v-0.002c-0.008-0.162-0.013-0.351-0.013-0.542 0-6.334 5.135-11.469 11.469-11.469s11.469 5.135 11.469 11.469c0 0.191-0.005 0.38-0.014 0.568l0.001-0.027c-0.003 92.385-55.271 171.86-134.546 207.17l-1.442 0.574c-1.35 0.605-2.925 0.957-4.582 0.957-6.325 0-11.453-5.128-11.453-11.453 0-4.668 2.792-8.683 6.797-10.467l0.073-0.029zM481.613 726.426c6.451 0 12.928-0.307 19.2-0.896l1.101-0.051c6.32 0.018 11.436 5.146 11.436 11.469 0 5.953-4.536 10.847-10.34 11.414l-0.047 0.004c-6.365 0.636-13.757 0.998-21.234 0.998-0.041 0-0.081 0-0.122 0h0.006c-6.334 0-11.469-5.135-11.469-11.469s5.135-11.469 11.469-11.469v0z" />
<glyph unicode="&#xe901;" glyph-name="bellcross" d="M532.122 109.568h-45.824c-55.603 0-59.648 4.608-59.904 57.344h182.861c-2.176-49.51-17.971-57.344-77.133-57.344zM804.557 360.32v190.694c0 34.56-6.733 67.533-18.432 98.15l-36.224-36.173c5.581-19.789 8.806-40.499 8.806-61.978v-189.235h-260.019l-45.824-45.85h337.408c26.88 0 48.666-21.811 48.666-48.717v-5.734c0-0.008 0-0.017 0-0.026 0-26.891-21.8-48.691-48.691-48.691h-440.55l-45.824-45.85h76.698c1.382-72.525 16.154-103.168 105.728-103.168h45.824c85.171 0 119.194 25.958 122.726 103.168h135.424c52.202 0.015 94.515 42.336 94.515 94.541 0 0.009 0 0.018 0 0.027v-0.001 5.734c-0.064 47.060-34.596 86.036-79.701 93.040l-0.529 0.068zM177.997 185.856l33.050 33.050c-15.245 8.342-25.422 24.25-25.472 42.54v5.741c0 26.931 21.811 48.717 48.717 48.717h73.754l45.85 45.85h-76.621v189.235c0 129.536 99.917 234.88 228.122 234.88h16.486c69.274 0 132.659-30.925 176.461-79.667l32.384 32.384c-52.122 57.062-126.925 93.158-208.845 93.158h-16.486c-153.472 0-273.971-125.952-273.971-280.755v-189.517c-50.931-1.51-91.649-43.134-91.699-94.28v-5.739c0-31.053 15.181-58.368 38.272-75.597zM708.506 511.027c6.349 0 11.469 5.12 11.443 11.469 0 18.355-2.765 36.198-6.989 53.504l-19.123-19.098c1.92-11.264 3.2-22.733 3.2-34.406 0-6.349 5.12-11.469 11.469-11.469zM568.858 724.326c-0.607-1.353-0.961-2.933-0.961-4.596 0-4.672 2.794-8.692 6.802-10.479l0.073-0.029c28.808-12.82 53.095-31.047 72.534-53.574l0.221-0.262 16.282 16.307c-21.664 24.748-48.31 44.562-78.435 57.976l-1.437 0.571c-1.354 0.612-2.936 0.968-4.601 0.968-4.666 0-8.678-2.798-10.449-6.808l-0.029-0.073zM493.338 749.082c-6.334 0-11.469-5.135-11.469-11.469s5.135-11.469 11.469-11.469v0c6.451 0 12.928-0.256 19.2-0.87 0.322-0.032 0.697-0.051 1.075-0.051 6.327 0 11.455 5.129 11.455 11.455 0 5.948-4.533 10.837-10.333 11.401l-0.047 0.004c-6.394 0.647-13.825 1.019-21.342 1.024h-0.009zM889.037 824.499c-4.63 4.637-11.029 7.506-18.099 7.506s-13.47-2.869-18.099-7.506v0l-717.338-717.338c-4.632-4.632-7.497-11.031-7.497-18.099 0-14.136 11.46-25.596 25.596-25.596 7.068 0 13.467 2.865 18.099 7.497l717.338 717.338c4.637 4.63 7.506 11.029 7.506 18.099s-2.869 13.47-7.506 18.099v0z" />
<glyph unicode="&#xe902;" d="M275.528 575.171c-70.124 0-127.181-57.047-127.181-127.171s57.057-127.171 127.181-127.171 127.171 57.047 127.171 127.171c0 70.124-57.047 127.171-127.181 127.171zM275.528 348.887c-54.651 0-99.123 44.462-99.123 99.113s44.472 99.123 99.123 99.123 99.123-44.472 99.123-99.123-44.472-99.123-99.123-99.123zM748.995 575.171c70.113 0 127.171-57.047 127.171-127.171s-57.057-127.171-127.181-127.171c-70.113 0-127.16 57.047-127.16 127.171s57.037 127.171 127.171 127.171zM748.995 348.887c54.651 0 99.113 44.462 99.113 99.113s-44.462 99.123-99.123 99.123c-54.651 0-99.113-44.472-99.113-99.123s44.462-99.123 99.123-99.123zM748.974 651.848c112.415 0 203.858-91.443 203.858-203.848 0-37.786-10.424-74.691-30.157-106.742-2.512-4.030-6.92-6.672-11.945-6.672-7.748 0-14.029 6.281-14.029 14.029 0 2.723 0.776 5.265 2.119 7.417l-0.034-0.059c16.328 26.144 26.010 57.897 26.010 91.912 0 0.041 0 0.081 0 0.122v-0.006c0 96.932-78.868 175.8-175.8 175.8-13.363 0-26.655-1.495-39.67-4.516-0.041 0-0.072-0.020-0.113-0.031-70.758-16.435-125.266-75.704-134.605-148.89l-0.031-0.348c-0.887-6.607-1.393-14.246-1.393-22.002 0-6.309 0.335-12.541 0.988-18.677l-0.066 0.763v-0.092c9.042-88.515 84.029-157.798 174.889-157.798 42.783 0 84.009 15.565 116.101 43.807 2.493 2.309 5.842 3.726 9.521 3.726 7.748 0 14.029-6.281 14.029-14.029 0-4.306-1.94-8.159-4.994-10.733l-0.021-0.017c-35.689-31.549-82.881-50.811-134.572-50.811-0.022 0-0.044 0-0.067 0h0.003c-69.97 0-131.809 35.43-168.53 89.293-15.605-20.892-40.268-34.273-68.056-34.273-0.050 0-0.1 0-0.15 0h0.008c-0.045 0-0.099 0-0.153 0-27.788 0-52.451 13.381-67.897 34.051l-0.159 0.222c-36.731-53.862-98.57-89.293-168.53-89.293-112.404 0-203.848 91.443-203.848 203.848 0 0.111 0 0.243 0 0.375 0 54.672 21.626 104.292 56.79 140.774l-0.060-0.062c2.526 2.466 5.983 3.987 9.796 3.987 7.748 0 14.029-6.281 14.029-14.029 0-3.609-1.363-6.9-3.602-9.385l0.011 0.013c-30.264-31.407-48.907-74.192-48.907-121.333 0-0.119 0-0.239 0-0.358v0.019c0-96.942 78.868-175.8 175.8-175.8 90.86 0 165.837 69.294 174.879 157.798v0.102c0.579 5.371 0.909 11.602 0.909 17.909 0 12.52-1.3 24.737-3.773 36.522l0.202-1.152c-16.128 78.602-84.89 138.25-167.69 140.36-1.355 0.037-2.95 0.059-4.549 0.059-31.339 0-60.764-8.196-86.248-22.562l0.88 0.456c-1.894-1.017-4.144-1.614-6.533-1.614-7.748 0-14.029 6.281-14.029 14.029 0 5.124 2.747 9.606 6.848 12.054l0.064 0.035c28.542 16.14 62.679 25.651 99.037 25.651 0.002 0 0.003 0 0.005 0h473.446zM645.038 623.278l0.84 0.512h-267.233l0.901-0.543c12.883-7.751 24.050-16.174 34.254-25.621l-0.135 0.123c36.127-33.331 59.679-80.005 64.655-128.963l0.010-0.102c1.208-11.981 1.352-24.115 0.461-36.137l-0.020-0.246c-1.982-26.11-8.658-50.215-19.189-72.116l0.522 1.204c8.949-20.276 28.878-34.171 52.051-34.171 0.035 0 0.071 0 0.106 0h-0.006c0.030 0 0.065 0 0.101 0 23.174 0 43.102 13.895 51.908 33.808l0.143 0.363c-17.623 37.427-23.245 79.923-16.404 120.709 9.779 58.296 46.275 110.981 97.034 141.179z" />
<glyph unicode="&#xe903;" d="M275.528 401.398c-25.726 0.029-46.573 20.876-46.602 46.599v0.003c0 7.748-6.281 14.029-14.029 14.029s-14.029-6.281-14.029-14.029v0c0-41.165 33.485-74.65 74.65-74.65 7.583 0.211 13.65 6.409 13.65 14.024s-6.067 13.812-13.63 14.023h-0.019zM748.995 401.398c-25.73 0.023-46.583 20.873-46.612 46.599v0.003c0 7.748-6.281 14.029-14.029 14.029s-14.029-6.281-14.029-14.029v0c0-41.165 33.505-74.65 74.67-74.65 0.113-0.003 0.246-0.005 0.379-0.005 7.748 0 14.029 6.281 14.029 14.029s-6.281 14.029-14.029 14.029c-0.133 0-0.266-0.002-0.398-0.006h0.019z" />
<glyph unicode="&#xe904;" d="M397.967 627.2c-8.998 0-16.292 7.294-16.292 16.292s7.294 16.292 16.292 16.292v0c8.998 0 16.292-7.294 16.292-16.292s-7.294-16.292-16.292-16.292v0zM626.104 236.155c-8.998 0-16.292 7.294-16.292 16.292s7.294 16.292 16.292 16.292v0c8.998 0 16.292-7.294 16.292-16.292s-7.294-16.292-16.292-16.292v0zM316.508 545.751c-8.995 0-16.287 7.292-16.287 16.287s7.292 16.287 16.287 16.287v0c8.995 0 16.287-7.292 16.287-16.287s-7.292-16.287-16.287-16.287v0zM707.482 317.645c-8.998 0-16.292 7.294-16.292 16.292s7.294 16.292 16.292 16.292v0c8.998 0 16.292-7.294 16.292-16.292s-7.294-16.292-16.292-16.292v0zM626.043 627.251c-8.998 0-16.292 7.294-16.292 16.292s7.294 16.292 16.292 16.292v0c8.998 0 16.292-7.294 16.292-16.292s-7.294-16.292-16.292-16.292v0zM397.957 236.186c-8.998 0-16.292 7.294-16.292 16.292s7.294 16.292 16.292 16.292v0c8.995 0 16.287-7.292 16.287-16.287s-7.292-16.287-16.287-16.287v0zM707.482 545.741c-8.995 0-16.287 7.292-16.287 16.287s7.292 16.287 16.287 16.287v0c8.995 0 16.287-7.292 16.287-16.287s-7.292-16.287-16.287-16.287v0zM316.518 317.686c-8.998 0-16.292 7.294-16.292 16.292s7.294 16.292 16.292 16.292v0c8.998 0 16.292-7.294 16.292-16.292s-7.294-16.292-16.292-16.292v0zM512 806.4c197.12 0 358.4-161.28 358.4-358.4 0-171.059-122.184-319.304-289.976-351.887-9.779-1.628-17.92 3.256-19.558 13.036-0.176 0.916-0.277 1.97-0.277 3.047 0 8.062 5.646 14.805 13.2 16.491l0.113 0.021c151.314 29.634 263.916 161.177 263.916 319.019 0 0.096 0 0.193 0 0.289v-0.015c0 179.2-146.616 325.816-325.816 325.816s-325.816-146.616-325.816-325.816 146.616-325.816 325.816-325.816c9.769 0 16.282-6.523 16.282-16.292 0-9.779-6.502-16.292-16.282-16.292-197.12 0-358.4 161.28-358.4 358.4s161.28 358.4 358.4 358.4zM580.424 733.082c131.953-32.563 224.809-149.852 224.809-285.082 0-161.28-131.953-293.233-293.233-293.233s-293.233 131.953-293.233 293.233 131.953 293.233 293.233 293.233c9.769 0 16.282-6.513 16.282-16.282v-48.876c0-9.779-6.513-16.292-16.282-16.292-9.779 0-16.292 6.513-16.292 16.282v32.584c-130.324-8.141-236.216-114.033-244.367-244.357h32.584c9.779 0 16.292-6.523 16.292-16.292s-6.513-16.282-16.282-16.282h-30.956c8.141-130.345 112.404-234.598 242.729-242.749v30.945c0 9.779 6.523 16.292 16.292 16.292s16.282-6.513 16.282-16.282v-30.956c130.345 8.151 234.598 112.415 242.749 242.739h-30.945c-9.779 0-16.292 6.523-16.292 16.292s6.513 16.282 16.282 16.282h32.584c-8.141 114.043-87.962 210.166-200.376 237.855-8.141 1.638-13.025 11.407-11.397 19.558 1.628 8.141 11.397 13.025 19.548 11.397z" />
<glyph unicode="&#xe905;" d="M653.722 329.073l-97.741 97.751c3.089 5.947 4.901 12.984 4.901 20.445 0 0.257-0.002 0.514-0.006 0.77l0.001-0.039c0 21.176-13.036 39.096-32.584 45.619v84.705c0 9.779-6.523 16.292-16.292 16.292s-16.282-6.513-16.282-16.282v-84.716c-19.558-6.523-32.594-24.443-32.594-45.619 0-27.699 21.176-48.876 48.876-48.876 8.141 0 14.664 1.638 21.176 4.895l97.751-97.751c3.256-3.256 8.141-4.884 11.397-4.884s8.151 1.628 11.407 4.884c6.513 6.513 6.513 16.292 0 22.804zM512 431.718c-9.779 0-16.282 6.523-16.282 16.292s6.513 16.282 16.282 16.282c9.769 0 16.282-6.513 16.282-16.282s-6.502-16.282-16.282-16.282z" />
<glyph unicode="&#xe906;" glyph-name="add-circle" d="M968.428 519.442h-384.988v384.99c0 17.538-23.815 55.566-71.442 55.566s-71.442-38.030-71.442-55.566v-384.992h-384.99c-17.536 0.002-55.566-23.813-55.566-71.438s38.030-71.442 55.566-71.442h384.992v-384.992c0-17.534 23.813-55.566 71.442-55.566s71.442 38.032 71.442 55.566v384.992h384.992c17.534 0 55.566 23.813 55.566 71.442s-38.036 71.44-55.572 71.44z" />
<glyph unicode="&#xe907;" glyph-name="calender" d="M844.8 537.6v140.8h-102.4v-51.2c0-14.138-11.462-25.6-25.6-25.6s-25.6 11.462-25.6 25.6v51.2h-358.4v-51.2c0-14.138-11.462-25.6-25.6-25.6s-25.6 11.462-25.6 25.6v51.2h-102.4v-140.8h665.6zM179.2 115.2h665.6v396.8h-665.6v-396.8zM844.8 729.6c28.277 0 51.2-22.923 51.2-51.2v0-563.2c0-28.277-22.923-51.2-51.2-51.2v0h-665.6c-28.277 0-51.2 22.923-51.2 51.2v0 563.2c0 28.277 22.923 51.2 51.2 51.2v0h102.4v76.8c0 14.138 11.462 25.6 25.6 25.6s25.6-11.462 25.6-25.6v0-76.8h358.4v76.8c0 14.138 11.462 25.6 25.6 25.6s25.6-11.462 25.6-25.6v0-76.8h102.4zM626.816 343.296h11.597c0 0 0 0 0 0 6.405 0 11.597 5.192 11.597 11.597 0 0.009 0 0.018 0 0.027v-0.001c0 0.008 0 0.017 0 0.026 0 6.405-5.192 11.597-11.597 11.597 0 0 0 0 0 0h-11.597c-6.426 0-11.635-5.209-11.635-11.635s5.209-11.635 11.635-11.635v0zM626.816 413.082h11.597c0 0 0 0 0 0 6.405 0 11.597 5.192 11.597 11.597 0 0.018 0 0.036 0 0.054v-0.003c0 0.008 0 0.017 0 0.026 0 6.405-5.192 11.597-11.597 11.597 0 0 0 0 0 0h-11.597c-6.426 0-11.635-5.209-11.635-11.635s5.209-11.635 11.635-11.635v0zM626.816 273.459h11.597c0 0 0 0 0 0 6.405 0 11.597 5.192 11.597 11.597 0 0.018 0 0.036 0 0.054v-0.003c0 0.008 0 0.017 0 0.026 0 6.405-5.192 11.597-11.597 11.597 0 0 0 0 0 0h-11.597c-6.433 0-11.648-5.215-11.648-11.648s5.215-11.648 11.648-11.648v0zM545.638 343.27h11.597c0 0 0 0 0 0 6.405 0 11.597 5.192 11.597 11.597 0 0.018 0 0.036 0 0.054v-0.003c0 0.008 0 0.017 0 0.026 0 6.405-5.192 11.597-11.597 11.597 0 0 0 0 0 0h-11.597c-6.426 0-11.635-5.209-11.635-11.635s5.209-11.635 11.635-11.635v0zM545.638 413.082h11.597c0 0 0 0 0 0 6.405 0 11.597 5.192 11.597 11.597 0 0.018 0 0.036 0 0.054v-0.003c0 0.008 0 0.017 0 0.026 0 6.405-5.192 11.597-11.597 11.597 0 0 0 0 0 0h-11.597c-6.426 0-11.635-5.209-11.635-11.635s5.209-11.635 11.635-11.635v0zM708.019 273.459h11.597c0 0 0 0 0 0 6.405 0 11.597 5.192 11.597 11.597 0 0.018 0 0.036 0 0.054v-0.003c0 0.008 0 0.017 0 0.026 0 6.405-5.192 11.597-11.597 11.597 0 0 0 0 0 0h-11.597c-6.433 0-11.648-5.215-11.648-11.648s5.215-11.648 11.648-11.648v0zM801.741 233.779c3.199 0.058 6.091 1.324 8.249 3.359l-0.006-0.006c2.050 2.15 3.322 5.058 3.354 8.263v0.006c-0.024 3.208-1.287 6.116-3.333 8.274l0.005-0.005c-2.166 1.992-5.068 3.214-8.256 3.214s-6.090-1.221-8.265-3.222l0.009 0.008c-2.055-2.144-3.321-5.058-3.321-8.269s1.265-6.125 3.325-8.273l-0.004 0.004c2.129-2.073 5.034-3.358 8.239-3.379h0.004zM708.045 413.082h11.571c0 0 0 0 0 0 6.405 0 11.597 5.192 11.597 11.597 0 0.018 0 0.036 0 0.054v-0.003c0 0.008 0 0.017 0 0.026 0 6.405-5.192 11.597-11.597 11.597 0 0 0 0 0 0h-11.597c-6.426 0-11.635-5.209-11.635-11.635s5.209-11.635 11.635-11.635v0zM545.613 203.648h11.622c0 0 0 0 0 0 6.405 0 11.597 5.192 11.597 11.597 0 0.018 0 0.036 0 0.054v-0.003c0 0.008 0 0.017 0 0.026 0 6.405-5.192 11.597-11.597 11.597 0 0 0 0 0 0h-11.597c-6.433 0-11.648-5.215-11.648-11.648s5.215-11.648 11.648-11.648v0zM708.019 343.27h11.597c0 0 0 0 0 0 6.405 0 11.597 5.192 11.597 11.597 0 0.018 0 0.036 0 0.054v-0.003c0 0.008 0 0.017 0 0.026 0 6.405-5.192 11.597-11.597 11.597 0 0 0 0 0 0h-11.597c-6.426 0-11.635-5.209-11.635-11.635s5.209-11.635 11.635-11.635v0zM696.422 145.459h73.19c26.598 0 42.112 14.976 43.853 44.544 0.128 0.666 1.357 1.331 1.357 1.997v4.173c0 6.451-6.4 11.648-12.8 11.648-6.426 0-12.8-5.197-12.8-11.648 0-25.472-8.115-27.443-19.61-27.443h-73.216c-6.433 0-11.648-5.215-11.648-11.648s5.215-11.648 11.648-11.648v0zM545.638 273.459h11.597c0 0 0 0 0 0 6.405 0 11.597 5.192 11.597 11.597 0 0.018 0 0.036 0 0.054v-0.003c0 0.008 0 0.017 0 0.026 0 6.405-5.192 11.597-11.597 11.597 0 0 0 0 0 0h-11.597c-6.433 0-11.648-5.215-11.648-11.648s5.215-11.648 11.648-11.648v0zM313.626 413.082h11.597c0 0 0 0 0 0 6.405 0 11.597 5.192 11.597 11.597 0 0.018 0 0.036 0 0.054v-0.003c0 0.008 0 0.017 0 0.026 0 6.405-5.192 11.597-11.597 11.597 0 0 0 0 0 0h-11.597c-6.426 0-11.635-5.209-11.635-11.635s5.209-11.635 11.635-11.635v0zM394.829 203.648h11.597c0 0 0 0 0 0 6.405 0 11.597 5.192 11.597 11.597 0 0.018 0 0.036 0 0.054v-0.003c0 0.008 0 0.017 0 0.026 0 6.405-5.192 11.597-11.597 11.597 0 0 0 0 0 0h-11.597c-6.433 0-11.648-5.215-11.648-11.648s5.215-11.648 11.648-11.648v0zM313.626 343.27h11.597c0 0 0 0 0 0 6.405 0 11.597 5.192 11.597 11.597 0 0.018 0 0.036 0 0.054v-0.003c0 0.008 0 0.017 0 0.026 0 6.405-5.192 11.597-11.597 11.597 0 0 0 0 0 0h-11.597c-6.426 0-11.635-5.209-11.635-11.635s5.209-11.635 11.635-11.635v0zM313.626 273.459h11.597c0 0 0 0 0 0 6.405 0 11.597 5.192 11.597 11.597 0 0.018 0 0.036 0 0.054v-0.003c0 0.008 0 0.017 0 0.026 0 6.405-5.192 11.597-11.597 11.597 0 0 0 0 0 0h-11.597c-6.433 0-11.648-5.215-11.648-11.648s5.215-11.648 11.648-11.648v0zM394.829 273.459h11.597c0 0 0 0 0 0 6.405 0 11.597 5.192 11.597 11.597 0 0.018 0 0.036 0 0.054v-0.003c0 0.008 0 0.017 0 0.026 0 6.405-5.192 11.597-11.597 11.597 0 0 0 0 0 0h-11.597c-6.433 0-11.648-5.215-11.648-11.648s5.215-11.648 11.648-11.648v0zM313.626 203.648h11.597c0 0 0 0 0 0 6.405 0 11.597 5.192 11.597 11.597 0 0.018 0 0.036 0 0.054v-0.003c0 0.008 0 0.017 0 0.026 0 6.405-5.192 11.597-11.597 11.597 0 0 0 0 0 0h-11.597c-6.433 0-11.648-5.215-11.648-11.648s5.215-11.648 11.648-11.648v0zM394.829 413.082h11.597c0 0 0 0 0 0 6.405 0 11.597 5.192 11.597 11.597 0 0.018 0 0.036 0 0.054v-0.003c0 0.008 0 0.017 0 0.026 0 6.405-5.192 11.597-11.597 11.597 0 0 0 0 0 0h-11.597c-6.426 0-11.635-5.209-11.635-11.635s5.209-11.635 11.635-11.635v0zM476.032 343.27h11.597c0 0 0 0 0 0 6.405 0 11.597 5.192 11.597 11.597 0 0.018 0 0.036 0 0.054v-0.003c0 0.008 0 0.017 0 0.026 0 6.405-5.192 11.597-11.597 11.597 0 0 0 0 0 0h-11.597c-6.426 0-11.635-5.209-11.635-11.635s5.209-11.635 11.635-11.635v0zM394.829 343.27h11.597c0 0 0 0 0 0 6.405 0 11.597 5.192 11.597 11.597 0 0.018 0 0.036 0 0.054v-0.003c0 0.008 0 0.017 0 0.026 0 6.405-5.192 11.597-11.597 11.597 0 0 0 0 0 0h-11.597c-6.426 0-11.635-5.209-11.635-11.635s5.209-11.635 11.635-11.635v0zM476.032 273.459h11.597c0 0 0 0 0 0 6.405 0 11.597 5.192 11.597 11.597 0 0.018 0 0.036 0 0.054v-0.003c0 0.008 0 0.017 0 0.026 0 6.405-5.192 11.597-11.597 11.597 0 0 0 0 0 0h-11.597c-6.433 0-11.648-5.215-11.648-11.648s5.215-11.648 11.648-11.648v0zM476.032 203.648h11.597c0 0 0 0 0 0 6.405 0 11.597 5.192 11.597 11.597 0 0.018 0 0.036 0 0.054v-0.003c0 0.008 0 0.017 0 0.026 0 6.405-5.192 11.597-11.597 11.597 0 0 0 0 0 0h-11.597c-6.433 0-11.648-5.215-11.648-11.648s5.215-11.648 11.648-11.648v0zM476.032 413.082h11.597c0 0 0 0 0 0 6.405 0 11.597 5.192 11.597 11.597 0 0.018 0 0.036 0 0.054v-0.003c0 0.008 0 0.017 0 0.026 0 6.405-5.192 11.597-11.597 11.597 0 0 0 0 0 0h-11.597c-6.426 0-11.635-5.209-11.635-11.635s5.209-11.635 11.635-11.635v0z" />
<glyph unicode="&#xe908;" glyph-name="camera" d="M293.402 541.85c-76.211 0-138.189 62.899-138.189 140.211 0 77.338 62.003 140.237 138.189 140.237 76.237 0 138.24-62.899 138.24-140.237 0-77.312-62.003-140.211-138.24-140.211zM293.402 777.114c-51.661 0-93.67-42.624-93.67-95.053 0-52.403 42.010-95.053 93.696-95.053 51.661 0 93.696 42.65 93.696 95.053 0 52.429-42.035 95.078-93.696 95.078zM232.115 670.771c-6.149 0.058-11.111 5.056-11.111 11.212 0 0.027 0 0.054 0 0.081v-0.004l-0.051 2.278c-0.026 0.462-0.040 1.002-0.040 1.546 0 2.2 0.238 4.344 0.691 6.408l-0.036-0.197c1.009 5.241 5.559 9.146 11.021 9.146 0.72 0 1.423-0.068 2.105-0.197l-0.070 0.011c6.016-1.152 9.984-7.091 8.832-13.21-0.282-1.485-0.282-1.485-0.256-2.765l0.077-3.021c0-6.246-5.018-11.264-11.162-11.264zM242.458 705.382c-2.303 0.001-4.44 0.709-6.207 1.919l0.038-0.024c-3.002 2.087-4.943 5.519-4.943 9.404 0 2.331 0.698 4.498 1.897 6.305l-0.026-0.042c13.043 19.726 35.11 32.571 60.179 32.614h0.007c6.144 0 11.136-5.043 11.136-11.29 0-0.023 0-0.050 0-0.077 0-6.166-4.977-11.169-11.132-11.213h-0.004c-17.367-0.038-32.647-8.939-41.561-22.419l-0.116-0.186c-2-3.024-5.387-4.992-9.233-4.992-0.012 0-0.024 0-0.037 0h0.002zM605.056 541.85c-76.211 0-138.189 62.899-138.189 140.211 0 77.338 62.003 140.237 138.189 140.237 76.237 0 138.24-62.899 138.24-140.237 0-77.312-62.003-140.211-138.24-140.211zM605.056 777.114c-51.661 0-93.696-42.624-93.696-95.053 0-52.403 42.035-95.053 93.696-95.053s93.696 42.65 93.696 95.053c0 52.429-42.035 95.078-93.696 95.078zM554.112 705.382c-0.006 0-0.014 0-0.021 0-2.305 0-4.444 0.708-6.212 1.919l0.038-0.024c-2.997 2.082-4.935 5.507-4.935 9.385 0 2.339 0.705 4.514 1.915 6.323l-0.026-0.041c13.043 19.726 35.11 32.571 60.179 32.614h0.007c6.144 0 11.136-5.043 11.136-11.29 0-0.023 0-0.050 0-0.077 0-6.166-4.977-11.169-11.132-11.213h-0.004c-17.367-0.038-32.647-8.939-41.561-22.419l-0.116-0.186c-2.006-3.025-5.397-4.992-9.246-4.992-0.007 0-0.015 0-0.022 0h0.001zM619.827 73.651h-413.338c-43.264 0-78.49 28.544-78.49 70.861v295.194c0 43.981 36.659 85.734 78.49 85.734h413.338c42.547 0 77.184-38.067 77.184-81.997 0-0.563-0.026-2.227-0.077-2.765l-0.563-8.474c110.198 55.863 148.75 76.811 187.186 97.943l-69.4-34.967c11.802 5.786 21.504 8.218 30.49 8.218 11.085 0 20.173-4.045 27.494-11.622 13.875-14.285 12.749-35.456 12.749-44.467v-305.075c0-13.568-1.92-23.629-7.45-31.386-4.71-6.63-14.438-14.592-30.515-14.592h0.691c-9.011 0-18.33 2.56-30.054 6.195-1.411 0.48-2.621 1.034-3.762 1.692l0.101-0.054c-42.598 22.784-88.55 46.95-118.118 61.978l1.152-18.79c0.051-0.435 0.077 1.408 0.077 0.973-0.051-43.11-33.92-74.598-77.184-74.598zM206.49 480.256c-17.408 0-33.971-21.402-33.971-40.55v-295.194c0-17.536 15.053-25.677 33.971-25.677h413.338c18.125 0 32.307 11.315 32.64 28.826l-3.277 54.63c-0.027 0.401-0.042 0.87-0.042 1.342 0 5.795 2.311 11.050 6.062 14.893l-0.004-0.004c3.99 4.215 9.624 6.838 15.871 6.838 0.118 0 0.235-0.001 0.352-0.003h-0.018c6.605 0 11.802-0.154 161.536-80.128 2.304-0.717 5.632-1.766 8.755-2.56v305.382c0.021 0.634 0.033 1.38 0.033 2.128 0 2.569-0.142 5.105-0.419 7.6l0.028-0.307c-1.664-0.512-3.968-1.357-7.014-2.816-153.702-83.456-155.648-83.456-162.918-83.456-0.015 0-0.033 0-0.052 0-6.43 0-12.216 2.756-16.241 7.152l-0.015 0.017c-3.689 4.034-5.949 9.43-5.949 15.353 0 0.588 0.022 1.171 0.066 1.748l-0.005-0.077 3.251 48.768c-0.358 18.406-15.155 36.096-32.64 36.096h-413.338zM205.901 340.147c-6.146 0.043-11.111 5.035-11.111 11.187 0 0.027 0 0.054 0 0.081v-0.004 57.421c0 20.89 17.997 48.845 40.346 48.845h94.541c6.144 0 11.136-5.069 11.136-11.315 0-0.015 0-0.033 0-0.051 0-6.166-4.977-11.169-11.132-11.213h-94.545c-8.141 0-18.099-15.744-18.099-26.266v-57.395c0-0.030 0-0.066 0-0.103 0-6.161-4.98-11.158-11.134-11.187h-0.003zM385.331 435.072h-11.136c-6.16 0.043-11.136 5.047-11.136 11.213 0 0.027 0 0.054 0 0.081v-0.004c0 6.246 4.992 11.29 11.136 11.29h11.136c6.144 0 11.136-5.043 11.136-11.29 0-0.023 0-0.050 0-0.077 0-6.166-4.977-11.169-11.132-11.213h-0.004z" />
<glyph unicode="&#xe909;" glyph-name="clock" d="M389.811 640c-9.642 0-17.459 7.817-17.459 17.459s7.817 17.459 17.459 17.459v0c9.642 0 17.459-7.817 17.459-17.459s-7.817-17.459-17.459-17.459v0zM634.24 221.030c-0.199-0.008-0.433-0.013-0.668-0.013-9.642 0-17.459 7.817-17.459 17.459s7.817 17.459 17.459 17.459c0.235 0 0.469-0.005 0.702-0.014l-0.033 0.001c9.351-0.369 16.791-8.039 16.791-17.446s-7.44-17.077-16.757-17.445l-0.033-0.001zM302.541 552.704c-9.642 0-17.459 7.817-17.459 17.459s7.817 17.459 17.459 17.459v0c9.642 0 17.459-7.817 17.459-17.459s-7.817-17.459-17.459-17.459v0zM721.434 308.326c-0.199-0.008-0.433-0.013-0.668-0.013-9.642 0-17.459 7.817-17.459 17.459s7.817 17.459 17.459 17.459c0.235 0 0.469-0.005 0.702-0.014l-0.033 0.001c9.351-0.369 16.791-8.039 16.791-17.446s-7.44-17.077-16.757-17.445l-0.033-0.001zM634.189 640.051c-0.199-0.008-0.433-0.013-0.668-0.013-9.642 0-17.459 7.817-17.459 17.459s7.817 17.459 17.459 17.459c0.235 0 0.469-0.005 0.702-0.014l-0.033 0.001c9.351-0.369 16.791-8.039 16.791-17.446s-7.44-17.077-16.757-17.445l-0.033-0.001zM389.811 221.056c-0.199-0.008-0.433-0.013-0.668-0.013-9.642 0-17.459 7.817-17.459 17.459s7.817 17.459 17.459 17.459c0.235 0 0.469-0.005 0.702-0.014l-0.033 0.001c9.351-0.369 16.791-8.039 16.791-17.446s-7.44-17.077-16.757-17.445l-0.033-0.001zM721.408 552.704c-9.642 0-17.459 7.817-17.459 17.459s7.817 17.459 17.459 17.459v0c9.642 0 17.459-7.817 17.459-17.459s-7.817-17.459-17.459-17.459v0zM302.515 308.352c-9.642 0-17.459 7.817-17.459 17.459s7.817 17.459 17.459 17.459v0c9.642 0 17.459-7.817 17.459-17.459s-7.817-17.459-17.459-17.459v0zM585.318 753.459c141.363-34.918 240.87-160.589 240.87-305.459 0-172.8-141.389-314.189-314.189-314.189s-314.189 141.389-314.189 314.189 141.389 314.189 314.189 314.189c10.47 0 17.459-6.989 17.459-17.459v-52.378c0-10.47-6.989-17.434-17.459-17.434-10.496 0-17.459 6.963-17.459 17.434v34.944c-139.622-8.704-253.082-122.189-261.811-261.811h34.918c10.47 0 17.434-6.989 17.434-17.459s-6.963-17.459-17.434-17.459h-33.178c8.73-139.648 120.448-251.366 260.122-260.070v33.178c0 10.47 6.963 17.434 17.434 17.434s17.459-6.963 17.459-17.434v-33.178c139.622 8.73 251.341 120.448 260.070 260.096h-33.178c-10.47 0-17.434 6.963-17.434 17.434s6.963 17.459 17.434 17.459h34.918c-8.83 123.973-96.479 225.23-212.734 254.408l-1.947 0.414c-8.73 1.766-13.978 12.237-12.237 20.966 1.766 8.704 12.237 13.952 20.966 12.211zM663.859 320.563c3.218-3.082 5.219-7.413 5.219-12.211s-2-9.13-5.212-12.205l-0.006-0.006c-3.186-3.055-7.452-5.004-12.17-5.221l-0.041-0.002c-4.769 0.212-9.045 2.162-12.243 5.229l0.007-0.006-104.704 104.73c-6.36-3.297-13.885-5.23-21.861-5.23-0.297 0-0.594 0.003-0.89 0.008l0.044-0.001c-29.696 0-52.352 22.682-52.352 52.352 0 22.682 13.952 41.882 34.893 48.896v90.752c0 10.47 6.989 17.434 17.459 17.434s17.459-6.963 17.459-17.434v-90.778c20.441-6.9 34.896-25.9 34.896-48.276 0-0.209-0.001-0.417-0.004-0.626v0.032c0-8.704-1.741-15.718-5.222-22.682l104.704-104.73zM512 430.566c10.496 0 17.459 6.989 17.459 17.459s-6.989 17.459-17.459 17.459c-10.47 0-17.459-6.989-17.459-17.459s6.989-17.459 17.459-17.459zM512 838.4c214.733 0 390.4-175.667 390.4-390.4 0-186.317-133.069-347.802-316.032-383.334-14.080-2.355-26.010 5.376-28.314 19.226-0.243 1.297-0.383 2.789-0.383 4.314 0 11.744 8.264 21.558 19.293 23.945l0.161 0.029c159.135 31.175 277.555 169.522 277.555 335.527 0 0.103 0 0.207 0 0.31v-0.016c0 188.467-154.214 342.682-342.682 342.682s-342.682-154.214-342.682-342.682c0-188.467 154.214-342.682 342.682-342.682 14.003 0 23.859-9.856 23.859-23.859s-9.856-23.859-23.859-23.859c-214.733 0-390.4 175.667-390.4 390.4s175.667 390.4 390.4 390.4z" />
<glyph unicode="&#xe90a;" glyph-name="cross" d="M511.269 344.576l-240.055-240.786c-13.325-13.819-32-22.401-52.68-22.401-40.396 0-73.143 32.747-73.143 73.143 0 20.607 8.522 39.223 22.233 52.518l0.019 0.018 240.933 241.737-240.786 239.909c-13.294 13.248-21.519 31.574-21.519 51.822 0 40.404 32.754 73.158 73.158 73.158 20.156 0 38.409-8.152 51.641-21.338l241.735-240.931 239.909 240.786c13.248 13.294 31.574 21.519 51.822 21.519 40.404 0 73.158-32.754 73.158-73.158 0-20.156-8.152-38.409-21.338-51.641l-240.931-241.735 240.786-239.909c13.294-13.248 21.519-31.574 21.519-51.822 0-40.404-32.754-73.158-73.158-73.158-20.156 0-38.409 8.152-51.641 21.338l-241.735 240.931z" />
<glyph unicode="&#xe90b;" glyph-name="down" d="M512.731 405.138l240.055 240.786c13.149 12.748 31.102 20.607 50.891 20.607 40.396 0 73.143-32.747 73.143-73.143 0-19.716-7.801-37.61-20.484-50.764l0.021 0.022-291.621-292.571c-13.243-13.275-31.555-21.488-51.785-21.488-20.158 0-38.411 8.154-51.641 21.344l-293.52 292.57c-13.819 13.325-22.401 32-22.401 52.68 0 40.396 32.747 73.143 73.143 73.143 20.607 0 39.223-8.522 52.518-22.233l0.018-0.019 241.737-240.933z" />
<glyph unicode="&#xe90c;" glyph-name="home" d="M698.522 70.144h-373.018c-83.072 0-105.549 27.674-105.549 113.843v390.861c0 12.124 9.828 21.952 21.952 21.952s21.952-9.828 21.952-21.952v0-390.861c0-62.771 2.56-69.939 61.645-69.939h373.018c59.059 0 70.016 7.168 70.016 69.939v390.861c0 12.117 9.823 21.939 21.939 21.939s21.939-9.823 21.939-21.939v0-390.861c0-86.17-30.848-113.818-113.894-113.818zM603.955 81.152c-6.051 0-10.957 4.906-10.957 10.957v0 208.179c0 21.786-4.198 22.221-28.314 22.221h-105.318c-24.141 0-19.968-0.435-19.968-22.221v-208.179c0-6.058-4.911-10.97-10.97-10.97s-10.97 4.911-10.97 10.97v208.179c0 37.786 10.035 44.16 41.907 44.16h105.318c31.846 0 50.253-6.4 50.253-44.16v-208.179c0-0.008 0-0.017 0-0.026 0-6.051-4.906-10.957-10.957-10.957-0.009 0-0.018 0-0.027 0h0.001zM149.965 509.491c-0.008 0-0.017 0-0.026 0-12.117 0-21.939 9.823-21.939 21.939 0 7.144 3.414 13.49 8.701 17.496l0.055 0.040 362.061 272.435c3.625 2.749 8.211 4.403 13.184 4.403 12.117 0 21.939-9.823 21.939-21.939 0-7.144-3.414-13.49-8.7-17.496l-0.055-0.040-362.010-272.435c-3.613-2.748-8.188-4.403-13.15-4.403-0.012 0-0.024 0-0.036 0h0.002zM874.061 509.491c-0.010 0-0.022 0-0.034 0-4.962 0-9.537 1.655-13.204 4.442l0.054-0.039-362.061 272.461c-4.936 4.059-8.060 10.166-8.060 17.003 0 12.131 9.834 21.965 21.965 21.965 4.67 0 9-1.458 12.56-3.943l-0.071 0.047 362.086-272.461c5.341-4.046 8.755-10.392 8.755-17.536 0-12.117-9.823-21.939-21.939-21.939-0.009 0-0.018 0-0.027 0h0.001zM318.72 410.291c-0.015 0-0.033 0-0.051 0-6.051 0-10.957 4.906-10.957 10.957 0 0 0 0 0 0v0 124.8c0 3.405-0.486 6.63 2.227 8.704l142.95 110.413c1.751 1.407 4.001 2.258 6.45 2.258 3.446 0 6.498-1.685 8.377-4.276l0.021-0.030c3.712-4.787 4.634-11.674-0.179-15.36l-137.882-107.11v-119.398c0 0 0 0 0 0 0-6.051-4.906-10.957-10.957-10.957-0.009 0-0.018 0-0.027 0h0.001zM318.72 355.43c-0.015 0-0.033 0-0.051 0-6.051 0-10.957 4.906-10.957 10.957 0 0 0 0 0 0v0 10.982c0 6.065 4.917 10.982 10.982 10.982s10.982-4.917 10.982-10.982v-10.982c0 0 0 0 0 0 0-6.051-4.906-10.957-10.957-10.957-0.009 0-0.018 0-0.027 0h0.001z" />
<glyph unicode="&#xe90d;" glyph-name="information" d="M711.117 647.117c50.952-50.68 82.484-120.838 82.484-198.362 0-0.266 0-0.531-0.001-0.796v0.041c0-75.213-29.286-145.92-82.483-199.117-50.68-50.952-120.838-82.484-198.362-82.484-0.266 0-0.531 0-0.796 0.001h0.041c-75.213 0-145.92 29.286-199.117 82.483-50.952 50.68-82.484 120.838-82.484 198.362 0 0.266 0 0.531 0.001 0.796v-0.041c0 75.213 29.286 145.92 82.483 199.117 50.676 50.951 120.831 82.484 198.351 82.484 0.269 0 0.538 0 0.807-0.001h-0.042c75.213 0 145.92-29.286 199.117-82.483zM512 524.8c-14.106 0-25.6-8.243-25.6-18.355v-219.29c0-10.112 11.494-18.355 25.6-18.355s25.6 8.243 25.6 18.355v219.29c0 10.112-11.494 18.355-25.6 18.355zM530.099 619.699c-4.643 4.615-11.035 7.475-18.094 7.501h-0.005c-6.733 0-13.312-2.739-18.099-7.501-4.617-4.642-7.478-11.034-7.501-18.095v-0.004c0-6.733 2.739-13.312 7.501-18.099 4.762-4.762 11.366-7.501 18.099-7.501s13.312 2.739 18.099 7.501c4.762 4.762 7.501 11.366 7.501 18.099s-2.739 13.338-7.501 18.099z" />
<glyph unicode="&#xe90e;" glyph-name="lock" d="M676.978 654.7c77.062-15.821 117.231-38.116 119.768-39.566 10.251-5.942 17.036-16.862 17.038-29.366v0-295.919c0-166.593-260.915-288.216-290.668-301.534-4.063-1.871-8.816-2.962-13.824-2.962s-9.761 1.091-14.034 3.049l0.21-0.086c-29.753 13.318-290.668 134.946-290.668 301.54v295.913c0.001 12.96 7.288 24.219 17.987 29.903l0.183 0.089c2.736 1.422 46.023 23.438 125.013 39.083-0.228 0.455 1.422 1.149 4.727 1.991v95.522c0 89.543 72.59 162.133 162.133 162.133s162.133-72.59 162.133-162.133v-97.655zM420.978 666.010c49.539 4.21 118.409 6.332 187.733-0.87v87.216c0 51.843-42.024 93.867-93.867 93.867s-93.867-42.024-93.867-93.867v-86.346zM746.121 289.86v274.307c-32.284 13.193-110.251 38.554-232.619 38.554-124.524 0-206.734-25.714-241.038-39.083v-273.789c0-98.059 159.67-195.868 236.828-233.301 77.158 37.433 236.828 135.242 236.828 233.301zM363.662 346.51c0 79.815 64.927 144.742 144.737 144.742s144.737-64.927 144.737-144.742c0-79.804-64.927-144.737-144.737-144.737s-144.737 64.933-144.737 144.737zM585.472 346.51c0 42.507-34.577 77.084-77.073 77.084s-77.073-34.577-77.073-77.084c0-42.496 34.577-77.073 77.073-77.073s77.073 34.577 77.073 77.073zM695.148 511.846c0-15.694-12.722-28.416-28.416-28.416s-28.416 12.722-28.416 28.416v0c0 15.694 12.722 28.416 28.416 28.416s28.416-12.722 28.416-28.416v0z" />
<glyph unicode="&#xe90f;" glyph-name="lockopen" d="M676.978 650.843c77.062-15.815 117.231-38.116 119.768-39.561 10.251-5.942 17.036-16.862 17.038-29.366v0-295.913c0-166.593-260.915-288.222-290.668-301.534-4.063-1.871-8.816-2.962-13.824-2.962s-9.761 1.091-14.034 3.049l0.21-0.086c-29.753 13.312-290.668 134.94-290.668 301.534v295.913c0.004 12.958 7.289 24.214 17.987 29.897l0.183 0.089c2.736 1.434 46.023 23.438 125.013 39.083-1.883 3.874 128.592 24.030 260.727 10.303v91.068c0 89.543 72.59 162.133 162.133 162.133s162.133-72.59 162.133-162.133v-39.822c0-18.851-15.282-34.133-34.133-34.133s-34.133 15.282-34.133 34.133v0 39.822c0 51.843-42.024 93.867-93.867 93.867s-93.867-42.024-93.867-93.867v-101.513zM746.121 286.003v274.313c-32.284 13.193-110.251 38.554-232.619 38.554-124.524 0-206.734-25.719-241.038-39.083v-273.783c0-98.059 159.67-195.868 236.828-233.307 77.158 37.444 236.828 135.248 236.828 233.307zM363.662 342.659c0 79.815 64.927 144.742 144.737 144.742s144.737-64.927 144.737-144.742c0-79.809-64.927-144.737-144.737-144.737s-144.737 64.927-144.737 144.737zM585.472 342.659c0 42.502-34.577 77.084-77.073 77.084s-77.073-34.583-77.073-77.084c0-42.496 34.577-77.073 77.073-77.073s77.073 34.577 77.073 77.073zM666.738 479.573c-15.694 0-28.416 12.722-28.416 28.416s12.722 28.416 28.416 28.416v0c15.694 0 28.416-12.722 28.416-28.416s-12.722-28.416-28.416-28.416v0z" />
<glyph unicode="&#xe910;" glyph-name="menu-unequal" d="M153.6 652.8h716.8c14.138 0 25.6 11.462 25.6 25.6s-11.462 25.6-25.6 25.6v0h-716.8c-14.138 0-25.6-11.462-25.6-25.6s11.462-25.6 25.6-25.6v0zM460.8 192h409.6c14.138 0 25.6 11.462 25.6 25.6s-11.462 25.6-25.6 25.6v0h-409.6c-14.138 0-25.6-11.462-25.6-25.6s11.462-25.6 25.6-25.6v0zM307.2 422.4h563.2c14.138 0 25.6 11.462 25.6 25.6s-11.462 25.6-25.6 25.6v0h-563.2c-14.138 0-25.6-11.462-25.6-25.6s11.462-25.6 25.6-25.6v0z" />
<glyph unicode="&#xe911;" glyph-name="menu" d="M460.8 652.8c-14.138 0-25.6 11.462-25.6 25.6s11.462 25.6 25.6 25.6v0h409.6c14.138 0 25.6-11.462 25.6-25.6s-11.462-25.6-25.6-25.6v0h-409.6zM460.8 192c-14.138 0-25.6 11.462-25.6 25.6s11.462 25.6 25.6 25.6v0h409.6c14.138 0 25.6-11.462 25.6-25.6s-11.462-25.6-25.6-25.6v0h-409.6zM460.8 422.4c-14.138 0-25.6 11.462-25.6 25.6s11.462 25.6 25.6 25.6v0h409.6c14.138 0 25.6-11.462 25.6-25.6s-11.462-25.6-25.6-25.6v0h-409.6z" />
<glyph unicode="&#xe912;" glyph-name="menubox" d="M179.2 320v-204.8h230.4v204.8h-230.4zM153.6 371.2h281.6c14.138 0 25.6-11.462 25.6-25.6v0-256c0-14.138-11.462-25.6-25.6-25.6v0h-281.6c-14.138 0-25.6 11.462-25.6 25.6v0 256c0 14.138 11.462 25.6 25.6 25.6v0zM614.4 320v-204.8h230.4v204.8h-230.4zM588.8 371.2h281.6c14.138 0 25.6-11.462 25.6-25.6v0-256c0-14.138-11.462-25.6-25.6-25.6v0h-281.6c-14.138 0-25.6 11.462-25.6 25.6v0 256c0 14.138 11.462 25.6 25.6 25.6v0zM179.2 780.8v-256h665.6v256h-665.6zM153.6 832h716.8c14.138 0 25.6-11.462 25.6-25.6v0-307.2c0-14.138-11.462-25.6-25.6-25.6v0h-716.8c-14.138 0-25.6 11.462-25.6 25.6v0 307.2c0 14.138 11.462 25.6 25.6 25.6v0z" />
<glyph unicode="&#xe913;" glyph-name="menudots" d="M332.8 217.6c-14.138 0-25.6 11.462-25.6 25.6s11.462 25.6 25.6 25.6v0h512c14.138 0 25.6-11.462 25.6-25.6s-11.462-25.6-25.6-25.6v0h-512zM179.2 217.6c-14.138 0-25.6 11.462-25.6 25.6s11.462 25.6 25.6 25.6v0h51.2c14.138 0 25.6-11.462 25.6-25.6s-11.462-25.6-25.6-25.6v0h-51.2zM332.8 422.4c-14.138 0-25.6 11.462-25.6 25.6s11.462 25.6 25.6 25.6v0h512c14.138 0 25.6-11.462 25.6-25.6s-11.462-25.6-25.6-25.6v0h-512zM179.2 422.4c-14.138 0-25.6 11.462-25.6 25.6s11.462 25.6 25.6 25.6v0h51.2c14.138 0 25.6-11.462 25.6-25.6s-11.462-25.6-25.6-25.6v0h-51.2zM332.8 627.2c-14.138 0-25.6 11.462-25.6 25.6s11.462 25.6 25.6 25.6v0h512c14.138 0 25.6-11.462 25.6-25.6s-11.462-25.6-25.6-25.6v0h-512zM179.2 627.2c-14.138 0-25.6 11.462-25.6 25.6s11.462 25.6 25.6 25.6v0h51.2c14.138 0 25.6-11.462 25.6-25.6s-11.462-25.6-25.6-25.6v0h-51.2z" />
<glyph unicode="&#xe914;" glyph-name="message" d="M415.923 66.944c-0.010 0-0.022 0-0.034 0-13.036 0-23.603 10.568-23.603 23.603 0 0.225 0.003 0.449 0.009 0.673l-0.001-0.033 2.304 87.987h-59.238c-45.158 0-77.414 37.197-77.414 82.944v308.89c0 44.57 32.256 80.845 77.414 80.845h474.214c45.158 0 86.426-36.25 86.426-80.845v-308.864c0-45.747-41.242-82.944-86.426-82.944h-229.478l-150.374-107.827c-3.811-2.784-8.59-4.454-13.758-4.454-0.005 0-0.010 0-0.015 0h0.001zM335.36 604.544c-19.405 0-30.131-14.746-30.131-33.587v-308.813c0-19.354 11.366-35.686 30.131-35.686h83.533c0.003 0 0.006 0 0.009 0 13.036 0 23.603-10.568 23.603-23.603 0-0.225-0.003-0.449-0.009-0.673l0.001 0.033-1.69-64.742 117.888 84.531c3.818 2.769 8.597 4.429 13.764 4.429 0.003 0 0.006 0 0.009 0h237.107c18.79 0 39.142 16.358 39.142 35.712v308.838c0 18.816-19.712 33.587-39.168 33.587h-474.189zM165.581 375.347c-5.581 0-8.909 1.946-13.414 5.939-17.28 15.309-24.166 35.405-24.166 58.112v308.813c0 44.57 32.256 80.845 77.414 80.845h474.214c45.158 0 86.426-36.275 86.426-80.87v-13.67c0-13.057-10.585-23.642-23.642-23.642s-23.642 10.585-23.642 23.642v0 13.696c0 18.816-19.712 33.587-39.142 33.587h-474.214c-19.456 0-30.157-14.771-30.157-33.587v-308.813c0-9.062 1.178-16.486 8.243-22.733 9.779-8.653 9.549-23.603 0.896-33.357-4.685-5.274-12.288-7.962-18.816-7.962zM489.779 498.227h-94.515c-6.525 0-11.814 5.289-11.814 11.814s5.289 11.814 11.814 11.814h94.515c6.525 0 11.814-5.289 11.814-11.814s-5.289-11.814-11.814-11.814v0zM655.181 498.227h-118.144c-6.525 0-11.814 5.289-11.814 11.814s5.289 11.814 11.814 11.814h118.144c6.525 0 11.814-5.289 11.814-11.814s-5.289-11.814-11.814-11.814v0zM749.722 498.227h-47.258c-6.525 0-11.814 5.289-11.814 11.814s5.289 11.814 11.814 11.814h47.258c6.525 0 11.814-5.289 11.814-11.814s-5.289-11.814-11.814-11.814v0zM442.522 439.142h-47.258c-6.525 0-11.814 5.289-11.814 11.814s5.289 11.814 11.814 11.814h47.258c6.525 0 11.814-5.289 11.814-11.814s-5.289-11.814-11.814-11.814v0zM584.294 439.142h-94.515c-6.525 0-11.814 5.289-11.814 11.814s5.289 11.814 11.814 11.814h94.515c6.525 0 11.814-5.289 11.814-11.814s-5.289-11.814-11.814-11.814v0zM749.722 439.142h-118.17c-6.525 0-11.814 5.289-11.814 11.814s5.289 11.814 11.814 11.814h118.17c6.525 0 11.814-5.289 11.814-11.814s-5.289-11.814-11.814-11.814v0zM513.408 368.256h-118.144c-6.525 0-11.814 5.289-11.814 11.814s5.289 11.814 11.814 11.814h118.144c6.525 0 11.814-5.289 11.814-11.814s-5.289-11.814-11.814-11.814v0zM678.81 368.256h-118.144c-6.525 0-11.814 5.289-11.814 11.814s5.289 11.814 11.814 11.814h118.144c6.525 0 11.814-5.289 11.814-11.814s-5.289-11.814-11.814-11.814v0zM749.722 368.256h-23.629c-6.525 0-11.814 5.289-11.814 11.814s5.289 11.814 11.814 11.814h23.629c6.525 0 11.814-5.289 11.814-11.814s-5.289-11.814-11.814-11.814v0zM442.522 309.171h-47.258c-6.525 0-11.814 5.289-11.814 11.814s5.289 11.814 11.814 11.814h47.258c6.525 0 11.814-5.289 11.814-11.814s-5.289-11.814-11.814-11.814v0zM572.493 309.171h-82.714c-6.525 0-11.814 5.289-11.814 11.814s5.289 11.814 11.814 11.814h82.688c6.525 0 11.814-5.289 11.814-11.814s-5.289-11.814-11.814-11.814v0z" />
<glyph unicode="&#xe915;" glyph-name="monitor" d="M819.2 268.8c28.237 0 51.2 22.963 51.2 51.2v17.28h-716.8v-17.28c0-28.237 22.963-51.2 51.2-51.2h614.4zM153.6 362.88h716.8v307.2h-716.8v-307.2zM204.8 755.2c-28.237 0-51.2-22.963-51.2-51.2v-8.32h716.8v8.32c0 28.237-22.963 51.2-51.2 51.2h-614.4zM819.2 806.4c56.554 0 102.4-45.846 102.4-102.4v0-384c0-56.554-45.846-102.4-102.4-102.4v0h-614.4c-56.554 0-102.4 45.846-102.4 102.4v0 384c0 56.554 45.846 102.4 102.4 102.4v0h614.4zM691.2 140.8c14.138 0 25.6-11.462 25.6-25.6s-11.462-25.6-25.6-25.6v0h-358.4c-14.138 0-25.6 11.462-25.6 25.6s11.462 25.6 25.6 25.6v0h153.6v25.6c0 14.138 11.462 25.6 25.6 25.6s25.6-11.462 25.6-25.6v0-25.6h153.6zM340.838 418.432c1.538-0.71 3.337-1.124 5.233-1.124 5.178 0 9.634 3.086 11.631 7.52l0.032 0.080 11.008 24.704c0.795 1.619 1.259 3.523 1.259 5.537 0 7.069-5.731 12.8-12.8 12.8-5.308 0-9.861-3.231-11.801-7.833l-0.031-0.084-11.008-24.704c-0.699-1.531-1.107-3.322-1.107-5.207 0-5.18 3.077-9.642 7.504-11.656l0.080-0.033zM373.862 492.518c1.531-0.699 3.322-1.107 5.207-1.107 5.18 0 9.642 3.077 11.656 7.504l0.033 0.080 43.955 98.816c0.612 1.443 0.968 3.121 0.968 4.883 0 7.069-5.731 12.8-12.8 12.8-5.056 0-9.428-2.932-11.507-7.188l-0.033-0.076-43.981-98.79c-0.697-1.529-1.103-3.316-1.103-5.198 0-5.188 3.087-9.656 7.525-11.666l0.080-0.033zM463.642 502.016c1.478-0.645 3.199-1.021 5.009-1.021 5.265 0 9.787 3.179 11.753 7.722l0.032 0.083 4.045 9.549c0.563 1.389 0.89 3.001 0.89 4.689 0 7.069-5.731 12.8-12.8 12.8-5.14 0-9.572-3.030-11.609-7.401l-0.033-0.079-4.070-9.549c-0.645-1.478-1.021-3.199-1.021-5.009 0-5.265 3.179-9.787 7.722-11.753l0.083-0.032zM415.027 387.507c1.488-0.66 3.224-1.045 5.049-1.045 5.26 0 9.775 3.192 11.713 7.746l0.031 0.083 32.41 76.365c0.526 1.347 0.831 2.905 0.831 4.536 0 7.069-5.731 12.8-12.8 12.8-5.090 0-9.487-2.972-11.549-7.275l-0.033-0.077-32.435-76.339c-0.645-1.478-1.021-3.199-1.021-5.009 0-5.265 3.179-9.787 7.722-11.753l0.083-0.032z" />
<glyph unicode="&#xe916;" d="M1023.181 448.41c0-282.544-229.047-511.59-511.59-511.59s-511.59 229.047-511.59 511.59c0 282.544 229.047 511.59 511.59 511.59s511.59-229.047 511.59-511.59z" />
<glyph unicode="&#xe917;" d="M511.625 145.476c167.305 0 302.933 135.628 302.933 302.933s-135.628 302.933-302.933 302.933v0c-167.305 0-302.933-135.628-302.933-302.933s135.628-302.933 302.933-302.933v0zM429.227 581.632l220.672-133.222-220.672-133.222v266.445z" />
<glyph unicode="&#xe918;" glyph-name="pro-logo" horiz-adv-x="4062" d="M665.116 354.037c0 42.502-34.577 77.084-77.073 77.084s-77.073-34.583-77.073-77.084c0-42.496 34.577-77.073 77.073-77.073s77.073 34.577 77.073 77.073zM876.39 622.666c10.252-5.943 17.038-16.865 17.038-29.372v0-295.913c0-166.593-260.915-288.222-290.668-301.534-4.063-1.871-8.816-2.962-13.824-2.962s-9.761 1.091-14.034 3.049l0.21-0.086c-29.753 13.312-290.668 134.94-290.668 301.534v295.913c0.004 12.958 7.289 24.214 17.987 29.897l0.183 0.089c2.736 1.434 46.023 23.438 125.013 39.083-2.179 4.292-3.468 9.353-3.499 14.713v62.776c0 90.021 73.239 163.26 163.26 163.26s163.26-73.239 163.26-163.26v-64.609c0-4.022-0.825-7.828-2.116-11.412 82.341-15.872 125.235-39.674 127.858-41.17zM825.759 297.381v274.313c-32.279 13.193-110.239 38.554-232.613 38.554-124.524 0-206.734-25.719-241.038-39.083v-273.783c0-98.059 159.67-195.868 236.828-233.307 77.158 37.444 236.828 135.248 236.828 233.307zM443.307 354.037c0 79.815 64.927 144.742 144.737 144.742s144.737-64.927 144.737-144.742c0-79.809-64.927-144.737-144.737-144.737s-144.737 64.927-144.737 144.737zM746.382 490.951c-15.694 0-28.416 12.722-28.416 28.416s12.722 28.416 28.416 28.416v0c15.694 0 28.416-12.722 28.416-28.416s-12.722-28.416-28.416-28.416v0zM491.793 677.092c0-1.684-0.262-3.288-0.495-4.904 30.363 3.644 65.525 5.723 101.172 5.723 0.238 0 0.476 0 0.713 0h-0.037c32.91 0 62.828-1.735 90.027-4.517-0.034 0.626-0.188 1.217-0.188 1.849v64.609c0 52.708-42.889 95.596-95.596 95.596-52.713 0-95.596-42.889-95.596-95.596v-62.76zM1112.223 221.753v354.89h166.002c77.158 0 119.194-52.144 119.194-114.398 0-61.724-42.57-113.869-119.188-113.869h-90.453v-126.635h-75.554zM1320.266 462.251c0 29.798-22.881 47.889-52.673 47.889h-79.815v-95.249h79.815c29.793 0 52.673 18.091 52.673 47.354zM1645.358 221.747l-69.695 126.106h-55.342v-126.106h-75.554v354.901h166.002c73.967 0 119.723-48.418 119.723-114.398 0-62.254-39.902-96.307-78.217-105.358l80.35-135.145h-87.268zM1652.81 462.785c0 29.264-22.881 47.354-52.679 47.354h-79.815v-95.778h79.815c29.798 0 52.679 18.091 52.679 48.424zM1769.853 398.933c0 106.951 78.222 183.569 185.697 183.569 106.951 0 185.168-76.618 185.168-183.569s-78.211-183.569-185.168-183.569c-107.48 0-185.697 76.618-185.697 183.569zM2063.030 398.933c0 66.503-42.035 116.531-107.48 116.531-65.974 0-108.009-50.022-108.009-116.531 0-65.98 42.035-116.526 108.009-116.526 65.445 0 107.48 50.546 107.48 116.526zM2174.76 321.781v57.469h127.698v-57.469h-127.698zM2422.704 221.747l-136.738 354.901h85.663l98.441-272.43 98.435 272.43h85.669l-136.75-354.901h-94.714zM2687.141 221.747v354.901h75.56v-354.901h-75.56zM2815.898 398.933c0 112.27 85.134 183.569 189.423 183.569 73.421 0 119.723-37.245 146.318-79.28l-62.248-34.054c-16.498 25.008-46.82 46.296-84.070 46.296-64.916 0-111.741-49.493-111.741-116.531 0-67.044 46.82-116.526 111.741-116.526 31.391 0 60.655 13.83 75.019 27.136v42.564h-93.639v65.98h169.205v-136.215c-36.187-40.437-86.738-66.509-150.585-66.509-104.289 0-189.423 71.828-189.423 183.569zM3216.009 221.747v354.901h75.548v-354.901h-75.548zM3358.589 221.747v354.901h76.095v-288.393h150.044v-66.509h-226.139z" />
<glyph unicode="&#xe919;" glyph-name="right" d="M176.567 448.731l240.786 240.055c13.819 13.325 22.401 32 22.401 52.68 0 40.396-32.747 73.143-73.143 73.143-20.607 0-39.223-8.522-52.518-22.233l-0.018-0.019-292.571-291.621c-13.275-13.243-21.488-31.555-21.488-51.785 0-20.158 8.154-38.411 21.344-51.641l292.57-293.52c13.149-12.748 31.102-20.607 50.891-20.607 40.396 0 73.143 32.747 73.143 73.143 0 19.716-7.801 37.61-20.484 50.764l0.021-0.022-240.933 241.737z" />
<glyph unicode="&#xe91a;" d="M701.147 448.731l-240.786 240.128c-14.262 13.381-23.148 32.347-23.148 53.389 0 40.396 32.747 73.143 73.143 73.143 20.987 0 39.91-8.839 53.248-22.998l0.034-0.037 292.571-291.621c13.275-13.243 21.488-31.555 21.488-51.785 0-20.158-8.154-38.411-21.344-51.641l-292.57-293.52c-13.149-12.748-31.102-20.607-50.891-20.607-40.396 0-73.143 32.747-73.143 73.143 0 19.716 7.801 37.61 20.484 50.764l-0.021-0.022 240.933 241.737z" />
<glyph unicode="&#xe91b;" d="M512 448c0-40.396-32.747-73.143-73.143-73.143s-73.143 32.747-73.143 73.143c0 40.396 32.747 73.143 73.143 73.143s73.143-32.747 73.143-73.143z" />
<glyph unicode="&#xe91c;" d="M292.571 448c0-40.396-32.747-73.143-73.143-73.143s-73.143 32.747-73.143 73.143c0 40.396 32.747 73.143 73.143 73.143s73.143-32.747 73.143-73.143z" />
<glyph unicode="&#xe91d;" glyph-name="settings" d="M502.093 339.456c-58.957 0-106.906 48.666-106.906 108.544 0 59.853 47.949 108.544 106.906 108.544 58.931 0 106.931-48.691 106.931-108.544 0-59.878-47.974-108.544-106.931-108.544zM502.093 509.286c-33.28 0-60.365-27.494-60.365-61.286s27.085-61.286 60.365-61.286 60.365 27.469 60.365 61.286c0 33.792-27.059 61.286-60.365 61.286zM505.165 64h-2.253c-42.47 0-80.947 32.461-94.541 77.645-18.176 5.734-35.814 13.184-52.787 22.221-15.926-9.421-35.054-15.077-55.486-15.308l-0.066-0.001c-24.346 0-46.746 9.139-63.078 25.728l-1.997 2.15c-29.568 30.003-34.022 80.614-12.032 122.368-8.755 16.998-14.822 35.149-20.557 54.17-44.57 13.67-74.368 51.098-74.368 93.568v2.304c0 42.598 29.773 80.256 74.291 94.106 6.042 20.301 12.826 38.861 21.837 56.192-22.63 41.344-19.226 89.856 10.317 119.834l1.459 1.664c17.024 17.254 40.653 26.803 66.688 26.803 18.944 0 37.939-5.018 54.886-14.336 15.872 8.346 32.358 15.283 49.306 20.736 11.648 45.517 50.586 78.157 96.128 78.157h2.253c44.902 0 81.818-32.077 92.621-78.285 17.152-5.53 33.869-12.57 49.92-21.069 15.269 9.299 33.718 14.838 53.454 14.925h0.024c26.317 0 50.816-10.163 69.018-28.621l1.203-1.126c32.256-32.742 36.122-81.946 11.674-122.342 8.474-16.461 16.717-33.229 22.067-50.099 45.414-10.931 79.232-50.022 79.232-96.563v-2.278c0-46.285-33.792-85.146-79.283-95.949-5.12-15.744-12.416-31.795-20.736-48 24.013-40.653 19.072-92.032-13.44-125.056l-1.715-2.509c-17.459-17.664-40.781-28.314-65.408-28.314-18.611 0-37.376 6.477-54.144 16.768-17.101-9.216-34.944-16.307-53.325-22.118-12.646-45.901-49.050-77.363-91.136-77.363zM354.714 215.014c4.070 0 8.115-1.075 11.75-3.226 19.35-11.73 41.707-21.426 65.386-27.928l1.865-0.437c8.858-2.304 15.514-9.728 17.050-18.867 5.018-29.901 27.904-53.299 52.147-53.299h2.253c26.547 0 44.416 26.624 48.333 52.89 1.376 9.365 8.122 16.85 16.962 19.289l0.165 0.039c23.962 6.4 47.027 16.205 68.531 29.133 3.389 2.075 7.491 3.303 11.88 3.303 5.603 0 10.738-2.002 14.729-5.33l-0.037 0.030c11.52-9.523 25.037-14.746 38.118-14.771 12.339 0 23.501 4.685 32.205 13.542l1.562 1.587c19.251 19.533 19.584 51.866 0.768 75.136-3.284 4.060-5.273 9.287-5.273 14.978 0 4.308 1.139 8.349 3.133 11.84l-0.062-0.117c12.493 22.298 21.581 44.083 27.034 64.845 2.509 9.651 11.955 16.64 21.76 17.459 29.901 2.509 52.838 24.166 52.838 51.456v2.253c0 27.622-22.963 49.51-52.864 52.096-10.115 0.899-18.373 7.93-21.078 17.315l-0.042 0.17c-5.888 22.426-15.514 44.928-28.058 66.816-2.007 3.429-3.192 7.551-3.192 11.95 0 5.679 1.975 10.896 5.277 15.002l-0.036-0.047c19.174 23.603 19.635 53.12 1.229 71.808l-1.203 1.126c-9.214 9.434-22.061 15.284-36.275 15.284-0.117 0-0.234 0-0.351-0.001h0.018c-13.389 0-26.752-4.89-37.581-13.773-3.941-3.259-9.047-5.235-14.614-5.235-4.327 0-8.375 1.194-11.833 3.271l0.104-0.058c-20.736 12.288-42.931 21.632-65.971 27.827-9.387 2.619-16.318 10.682-17.222 20.49l-0.007 0.092c-2.893 30.464-22.989 51.789-48.947 51.789h-2.253c-26.88 0-49.613-22.4-52.736-52.070-1.026-9.783-7.908-17.718-17.037-20.287l-0.166-0.040c-22.528-6.042-44.288-15.155-64.717-27.059-3.321-1.979-7.323-3.148-11.598-3.148-5.126 0-9.86 1.682-13.679 4.523l0.061-0.043c-11.208 8.278-25.243 13.326-40.448 13.542l-0.051 0.001c-13.619 0-25.651-4.608-33.894-13.005l-1.638-1.638c-18.611-18.918-12.877-50.432 2.406-71.782 2.786-3.859 4.456-8.685 4.456-13.9 0-4.454-1.218-8.624-3.339-12.194l0.061 0.11c-12.16-20.736-21.427-43.776-28.288-70.477-2.304-8.909-8.269-15.667-17.203-17.28-29.517-5.35-50.56-27.366-50.56-51.2v-2.253c0-23.578 21.018-45.312 50.509-50.56 8.96-1.587 15.59-8.346 17.894-17.306 6.349-24.755 15.36-47.821 27.315-68.608 1.953-3.39 3.105-7.456 3.105-11.79 0-5.175-1.643-9.967-4.435-13.883l0.050 0.073c-17.331-24.806-17.613-57.83-0.512-75.162l1.946-2.15c9.165-9.293 21.197-11.366 29.619-11.366 13.619 0 28.518 5.325 40.883 14.592 4.096 3.072 8.934 4.608 13.798 4.608zM700.544 513.101c-4.955 0.023-9.179 3.129-10.853 7.498l-0.027 0.080c-29.542 78.131-104.781 130.611-187.238 130.637-6.431 0.058-11.623 5.285-11.623 11.724 0 0.027 0 0.054 0 0.081v-0.004c0 6.528 5.197 11.827 11.622 11.827 92.006 0 176-58.598 208.973-145.792 0.491-1.254 0.775-2.707 0.775-4.226 0-4.962-3.036-9.215-7.352-11.003l-0.079-0.029c-1.23-0.486-2.655-0.768-4.146-0.768-0.019 0-0.037 0-0.056 0h0.003zM307.61 342.63c-4.231 0.003-7.931 2.27-9.955 5.656l-0.029 0.053c-2.003 3.449-3.767 7.442-5.082 11.634l-0.115 0.423c-0.896 2.509-2.048 5.709-3.686 10.138-0.498 1.26-0.786 2.719-0.786 4.246 0 4.967 3.055 9.22 7.389 10.983l0.079 0.029c1.234 0.488 2.663 0.771 4.158 0.771 4.953 0 9.181-3.105 10.843-7.475l0.027-0.080c1.741-4.608 2.944-7.962 3.84-10.573 1.715-4.736 2.202-6.067 3.277-7.885 3.328-5.632 1.536-12.851-3.942-16.23-1.696-1.061-3.756-1.69-5.963-1.69-0.019 0-0.037 0-0.056 0h0.003zM497.69 224.742c-68.754 0.078-130.18 31.387-170.864 80.501l-0.297 0.37c-1.709 2.049-2.746 4.711-2.746 7.614 0 3.599 1.594 6.826 4.114 9.013l0.015 0.013c2.001 1.719 4.622 2.766 7.489 2.766 3.573 0 6.767-1.627 8.88-4.181l0.016-0.019c36.733-44.336 91.782-72.384 153.384-72.448h0.011c6.426 0 11.648-5.274 11.648-11.802 0-0.031 0-0.067 0-0.103 0-6.449-5.206-11.681-11.644-11.725h-0.004z" />
<glyph unicode="&#xe91e;" glyph-name="telephone" d="M868.838 213.043c2.509-18.944-3.84-37.632-17.357-51.149l-49.766-49.766c-19.2-19.2-46.387-28.774-79.642-28.8-93.875 0-229.862 75.827-351.642 197.632-167.987 167.962-243.456 356.685-168.832 431.283l49.766 49.792c10.99 11.045 26.202 17.88 43.010 17.88 2.87 0 5.694-0.199 8.458-0.585l-0.319 0.036c18.944-2.509 35.328-13.466 44.877-30.054l96.563-167.68c13.722-23.885 9.728-54.118-9.728-73.6l-43.418-43.392c-3.099-3.103-5.015-7.387-5.015-12.119 0-4.127 1.458-7.914 3.887-10.874l-0.024 0.030c22.008-27.073 43.94-51.332 67.056-74.404l0.016-0.015c23.087-23.131 47.347-45.062 72.693-65.71l1.726-1.362c2.927-2.398 6.709-3.851 10.83-3.851 4.739 0 9.029 1.922 12.133 5.029l43.392 43.392c11.052 11.024 26.306 17.84 43.151 17.84 11.197 0 21.69-3.011 30.714-8.268l-0.291 0.157 167.706-96.563c16.175-9.364 27.494-25.576 30.021-44.567l0.034-0.309zM823.91 189.491c3.995 3.959 6.468 9.447 6.468 15.513 0 1.029-0.071 2.042-0.209 3.034l0.013-0.115c-0.917 6.973-5.007 12.83-10.749 16.149l-0.105 0.056-167.68 96.563c-3.155 1.844-6.947 2.933-10.992 2.933-6.082 0-11.589-2.461-15.581-6.44l-12.236-12.236 18.816-10.752c5.917-3.423 9.834-9.721 9.834-16.934 0-10.768-8.729-19.498-19.498-19.498-3.555 0-6.888 0.951-9.758 2.614l0.094-0.050-28.083 16.026-2.56-2.56c-10.15-10.173-24.184-16.466-39.689-16.466-13.434 0-25.765 4.725-35.42 12.604l0.101-0.080c-28.202 22.916-53.471 45.751-77.502 69.822l-0.014 0.015c-24.084 24.045-46.92 49.314-68.416 75.716l-1.42 1.8c-7.799 9.554-12.524 21.885-12.524 35.319 0 15.504 6.294 29.539 16.465 39.688l4.865 4.865-86.426 150.144c-1.635 2.792-2.6 6.147-2.6 9.728 0 10.768 8.729 19.496 19.496 19.496 7.187 0 13.465-3.888 16.846-9.676l0.050-0.092 81.203-141.056 9.958 9.984c3.979 3.991 6.44 9.498 6.44 15.58 0 4.046-1.089 7.837-2.989 11.097l0.057-0.105-96.563 167.68c-3.82 6.652-10.884 11.060-18.977 11.060-0.060 0-0.121 0-0.181-0.001h0.009c-0.012 0-0.025 0-0.039 0-6.051 0-11.526-2.467-15.473-6.45l-0.002-0.002-1.562-1.587 10.138-17.613c1.635-2.792 2.6-6.147 2.6-9.728 0-10.768-8.729-19.496-19.496-19.496-7.187 0-13.465 3.888-16.846 9.676l-0.050 0.092-4.915 8.525-19.635-19.661c-24.653-24.627-23.398-77.722 4.992-145.587 30.899-73.882 89.088-155.827 163.84-230.554 74.726-74.752 156.672-132.941 230.554-163.84 67.84-28.365 120.96-29.619 145.587-4.992l18.022 17.997-130.099 74.24c-5.917 3.423-9.834 9.721-9.834 16.934 0 10.768 8.729 19.498 19.498 19.498 3.555 0 6.888-0.951 9.758-2.614l-0.094 0.050 139.341-79.514 3.174 3.174z" />
<glyph unicode="&#xe91f;" glyph-name="tick" d="M394.825 262.583l415.671 523.483c13.513 17.083 34.242 27.946 57.507 27.946 40.396 0 73.143-32.747 73.143-73.143 0-17.397-6.074-33.376-16.217-45.931l0.108 0.139-464.603-585.143c-13.516-16.885-34.125-27.606-57.239-27.606-19.14 0-36.564 7.352-49.6 19.386l0.050-0.045-257.024 236.763c-14.198 13.373-23.039 32.298-23.039 53.287 0 40.396 32.747 73.143 73.143 73.143 18.916 0 36.154-7.18 49.139-18.964l-0.061 0.054 198.949-183.369z" />
<glyph unicode="&#xe920;" glyph-name="tickcircle" d="M512 64c212.070 0 384 171.93 384 384 0 212.096-171.93 384-384 384s-384-171.904-384-384c0-212.070 171.93-384 384-384zM512 883.2c240.358 0 435.2-194.842 435.2-435.2 0-240.384-194.842-435.2-435.2-435.2-240.384 0-435.2 194.816-435.2 435.2 0 240.358 194.816 435.2 435.2 435.2zM668.109 593.741l-232.96-242.15-84.275 83.994c-4.659 4.806-11.175 7.788-18.388 7.788-14.138 0-25.6-11.462-25.6-25.6 0-7.238 3.004-13.774 7.833-18.43l0.008-0.007 102.733-102.4c4.63-4.618 11.020-7.473 18.077-7.473 7.246 0 13.789 3.011 18.446 7.849l0.008 0.008 251.008 260.915c4.428 4.595 7.156 10.856 7.156 17.754 0 14.139-11.462 25.601-25.601 25.601-7.241 0-13.78-3.006-18.437-7.839l-0.008-0.008z" />
<glyph unicode="&#xe921;" glyph-name="up" d="M512.731 490.862l240.055-240.786c13.149-12.748 31.102-20.607 50.891-20.607 40.396 0 73.143 32.747 73.143 73.143 0 19.716-7.801 37.61-20.484 50.764l0.021-0.022-291.621 292.571c-13.243 13.275-31.555 21.488-51.785 21.488-20.158 0-38.411-8.154-51.641-21.344l-293.52-292.57c-13.819-13.325-22.401-32-22.401-52.68 0-40.396 32.747-73.143 73.143-73.143 20.607 0 39.223 8.522 52.518 22.233l0.018 0.019 241.737 240.933z" />
<glyph unicode="&#xe922;" glyph-name="contract" d="M0 155.428h219.428v-219.428h146.287v365.715h-365.715zM219.428 740.572h-219.428v-146.287h365.715v365.715h-146.287zM804.572 740.572v219.428h-146.287v-365.715h365.715v146.287zM658.285-64h146.287v219.428h219.428v146.287h-365.715z" />
<glyph unicode="&#xe923;" glyph-name="remove-circle" d="M968.432 519.443h-912.866c-17.538 0-55.566-23.815-55.566-71.443s38.030-71.443 55.566-71.443h912.87c17.532 0 55.564 23.815 55.564 71.443s-38.032 71.443-55.568 71.443z" />
<glyph unicode="&#xe924;" glyph-name="screenshot" d="M740.531 780.032c50.406 0 91.392-40.96 91.392-91.29v-106.317h-59.904v106.317c-0.029 17.368-14.116 31.437-31.488 31.437 0 0 0 0 0 0h-106.24v59.853h106.24zM772.096 522.547h59.904v-137.728h-59.904v137.728zM270.515 779.981h106.291v-59.853h-106.291c-17.368-0.029-31.437-14.116-31.437-31.488 0 0 0 0 0 0v0-106.24h-59.878v106.24c0 50.381 40.96 91.392 91.315 91.392zM436.685 780.058h137.728v-59.904h-137.728v59.904zM436.685 187.213h137.728v-59.904h-137.728v59.904zM270.643 187.213h106.24v-59.904h-106.24c-50.381 0-91.392 40.96-91.392 91.341v106.291h59.904v-106.291c0.029-17.368 14.116-31.437 31.488-31.437 0 0 0 0 0 0v0zM179.2 522.573h59.904v-137.728h-59.904v137.728zM717.312 300.032h115.251v-59.904h-115.251v-113.766h-59.904v113.792h-137.728v59.878h137.728v137.728h59.904v-137.728z" />
<glyph unicode="&#xe925;" glyph-name="help" d="M512 192c-14.138 0-25.6 11.462-25.6 25.6s11.462 25.6 25.6 25.6v0c14.138 0 25.6-11.462 25.6-25.6s-11.462-25.6-25.6-25.6v0zM788.045 724.045c151.859-151.808 151.859-400.256 0-552.090-131.738-131.763-340.019-151.859-494.515-47.616-11.622 8.32-14.592 22.195-6.426 33.638 4.486 6.373 11.81 10.485 20.095 10.485 4.981 0 9.614-1.486 13.481-4.040l-0.092 0.057c53.777-36.976 120.301-59.056 191.982-59.056 94.437 0 179.922 38.323 241.754 100.266l0.005 0.005c133.248 133.248 133.248 351.36 0 484.608-133.274 133.274-351.386 133.274-484.659 0-133.248-133.248-133.248-351.36 0-484.608 9.907-9.907 9.907-23.859 0-33.741-9.882-9.907-23.808-9.907-33.715 0-151.859 151.808-151.859 400.256 0 552.090 151.808 151.859 400.256 151.859 552.090 0zM537.421 313.651c-0.326 1.897-0.687 4.667-0.972 7.459l-0.052 0.631c-1.715 16.691-1.357 34.867 2.432 51.277 4.301 18.79 12.442 32.256 24.832 39.885 62.694 38.63 101.939 87.296 101.939 140.57 0 92.774-61.696 150.528-158.976 150.528-89.421 0-148.224-55.066-148.224-140.442 0-14.138 11.462-25.6 25.6-25.6s25.6 11.462 25.6 25.6v0c0 56.32 35.174 89.242 97.024 89.242 69.734 0 107.776-35.61 107.776-99.302 0-31.437-28.467-66.739-77.594-97.024-25.498-15.693-40.755-40.934-47.872-71.987-5.222-22.733-5.709-46.157-3.482-67.968 0.461-4.454 0.947-7.936 1.126-8.73 1.857-12.472 12.492-21.931 25.336-21.931 14.138 0 25.6 11.462 25.6 25.6 0 0.772-0.034 1.537-0.101 2.291l0.007-0.098z" />
<glyph unicode="&#xe926;" glyph-name="download" d="M964.423 83.045h-904.847c-32.902 0-59.577-26.842-59.577-60.109 0-33.154 26.674-59.997 59.577-59.997h904.847c32.916 0 59.577 26.842 59.577 59.997 0 33.266-26.66 60.109-59.577 60.109zM457.958 239.803c11.098-13.267 27.36-21.062 44.616-21.356h0.994c16.906 0 33.056 7.263 44.364 19.999l256.64 288.199c15.898 17.886 19.677 43.566 9.671 65.469-10.062 21.804-32.216 35.281-55.84 34.736l-72.354-2.211v248.313c0 33.154-26.674 60.109-59.591 60.109h-230.218c-15.786 0-30.943-6.312-42.153-17.578-11.168-11.266-17.48-26.632-17.48-42.531l0.056-248.313-71.682 2.211c-23.372 0.63-45.204-12.623-55.42-33.896-10.258-21.286-7.109-46.743 7.991-64.853l240.406-288.297z" />
<glyph unicode="&#xe927;" glyph-name="delete" d="M654.592 64h-251.699c-51.048 0.129-93.074 38.589-98.823 88.112l-0.044 0.464-51.968 451.789c-0.138 0.811-0.217 1.746-0.217 2.698 0 4.806 2.007 9.144 5.228 12.22l0.007 0.006c3.323 4.277 8.468 7.003 14.249 7.003 0.256 0 0.51-0.005 0.763-0.016l-0.036 0.001h505.421c0.217 0.009 0.471 0.015 0.727 0.015 5.781 0 10.926-2.726 14.219-6.963l0.030-0.041c3.661-4.070 5.453-9.472 4.992-14.925l-42.957-449.792c-4.845-50.998-47.459-90.574-99.316-90.574-0.193 0-0.386 0.001-0.579 0.002h0.030zM294.042 586.47l49.946-429.926c3.656-29.683 28.592-52.476 58.904-52.736h251.726c0.124-0.001 0.27-0.001 0.416-0.001 30.901 0 56.333 23.418 59.517 53.475l0.022 0.261 40.96 428.928h-461.542zM417.28 206.822c10.496 1.28 17.638 13.414 15.949 27.059l-34.15 278.195c-1.69 13.645-11.52 23.68-22.016 22.374-10.496-1.28-17.613-13.389-15.949-27.034l34.176-278.195c1.664-13.645 11.52-23.68 22.016-22.4zM527.309 205.594c10.573 0 19.123 11.162 19.123 24.909v280.294c0 13.747-8.55 24.883-19.123 24.883-10.547 0-19.123-11.136-19.123-24.883v-280.32c0-13.722 8.576-24.883 19.123-24.883zM643.072 206.234c-10.496 0.922-18.074 12.774-16.896 26.47l24.448 279.219c1.203 13.696 10.701 24.064 21.222 23.142 10.496-0.922 18.074-12.8 16.87-26.47l-24.422-279.245c-1.203-13.67-10.701-24.038-21.248-23.117zM850.432 742.426c11.059 0 19.994-8.909 19.994-19.891 0-11.008-8.96-19.917-19.968-19.917h-651.29c-0.008 0-0.017 0-0.026 0-11.005 0-19.928 8.914-19.942 19.915v0.001c0 10.982 8.96 19.891 19.968 19.891h205.773v31.846c-0.021 0.568-0.033 1.236-0.033 1.906 0 30.836 24.998 55.834 55.834 55.834 0.399 0 0.796-0.004 1.193-0.012l-0.059 0.001 128.896-0.026c29.999-1.047 53.921-25.618 53.921-55.776 0-0.677-0.012-1.352-0.036-2.024l0.003 0.097v-31.846h205.773zM444.928 742.426h159.795v31.846c0.081 0.604 0.128 1.303 0.128 2.013 0 8.808-7.141 15.949-15.949 15.949-0.405 0-0.807-0.015-1.205-0.045l0.053 0.003h-125.85c-0.327 0.024-0.708 0.037-1.093 0.037-8.837 0-16-7.163-16-16 0-0.69 0.044-1.37 0.128-2.037l-0.008 0.079v-31.846zM401.075 121.523c-26.624 0-42.112 14.976-43.853 44.544-0.102 0.666-1.357 1.306-1.357 1.997v4.173c0 6.451 6.4 11.648 12.8 11.648 6.426 0 12.8-5.197 12.8-11.648 0-25.472 8.141-27.443 19.61-27.443h73.216c6.433 0 11.648-5.215 11.648-11.648s-5.215-11.648-11.648-11.648h-73.216zM368.922 209.843c-3.194 0.064-6.078 1.339-8.223 3.384l0.005-0.005c-2.056 2.139-3.336 5.038-3.379 8.235v0.008c0 3.072 1.28 6.093 3.379 8.269 2.158 1.989 5.052 3.209 8.23 3.209s6.072-1.22 8.239-3.216l-0.008 0.008c2.065-2.134 3.338-5.047 3.338-8.256s-1.273-6.122-3.341-8.259l0.003 0.003c-2.126-2.082-5.031-3.376-8.238-3.405h-0.005z" />
<glyph unicode="&#xe928;" glyph-name="repeat" d="M319.949 679.68c-81.971-75.264-116.557-189.901-90.624-299.034 0.379-1.5 0.596-3.223 0.596-4.996 0-11.579-9.274-20.993-20.799-21.218h-0.021c-9.818 0.029-18.033 6.852-20.196 16.012l-0.028 0.141c-29.619 124.211 9.882 254.72 103.117 340.48 67.789 62.413 155.622 94.259 247.014 89.549 73.779-3.763 142.797-30.72 198.835-77.312l-3.251 86.733c-0.015 0.296-0.023 0.642-0.023 0.991 0 11.273 8.896 20.467 20.051 20.947l0.043 0.001c0.186 0.006 0.404 0.009 0.623 0.009 11.381 0 20.646-9.057 20.983-20.356l0.001-0.031 5.12-138.317v-2.509c0.001-0.059 0.001-0.129 0.001-0.198 0-11.279-8.895-20.48-20.053-20.971l-0.044-0.002-138.47-5.171c-11.305 0.108-20.471 9.113-20.838 20.344l-0.001 0.034c-0.016 0.304-0.025 0.659-0.025 1.017 0 11.273 8.897 20.468 20.052 20.947l0.043 0.001 89.702 3.43c-51.132 42.565-117.499 68.401-189.899 68.401-78.009 0-149.013-29.994-202.108-79.079l0.199 0.182zM860.723 525.389c29.619-124.365-9.882-254.694-103.117-340.48-63.616-58.342-144.512-90.010-229.555-90.010-0.227-0.001-0.497-0.001-0.767-0.001-81.839 0-156.872 29.139-215.291 77.608l0.557-0.449 7.398-84.838c0.065-0.623 0.103-1.347 0.103-2.079 0-10.888-8.259-19.847-18.853-20.954l-0.091-0.008c-0.614-0.179-1.229-0.179-1.843-0.179-10.907 0.103-19.814 8.53-20.68 19.228l-0.005 0.074-12.365 139.418c-0.065 0.623-0.103 1.347-0.103 2.079 0 10.888 8.259 19.847 18.853 20.954l0.091 0.008 137.242 12.544c0.579 0.057 1.251 0.090 1.93 0.090 10.932 0 19.895-8.428 20.747-19.14l0.005-0.073c0.066-0.624 0.103-1.348 0.103-2.081 0-10.879-8.245-19.832-18.827-20.951l-0.092-0.008-90.778-8.32c51.525-43.809 118.827-70.454 192.352-70.454 78.012 0 149.017 29.996 202.113 79.083l-0.199-0.182c81.971 75.264 116.71 189.952 90.624 299.085-0.381 1.504-0.6 3.231-0.6 5.009 0 9.823 6.674 18.087 15.735 20.506l0.148 0.034c1.458 0.364 3.132 0.573 4.855 0.573 9.828 0 18.069-6.795 20.281-15.944l0.029-0.142zM511.181 212.045c1.979 4.972 6.751 8.423 12.329 8.423 0.039 0 0.079 0 0.118-0.001h-0.006c94.643-0.461 180.736 57.83 214.221 145.050 1.995 4.974 6.777 8.423 12.364 8.423 1.751 0 3.423-0.339 4.954-0.954l-0.089 0.032c6.912-2.637 10.394-10.291 7.782-17.101-37.376-97.331-133.453-162.406-239.104-161.869-7.349 0.028-13.311 5.927-13.44 13.249v0.012c0 1.69 0.307 3.251 0.87 4.736zM490.394 696.986c1.682 4.296 5.441 7.443 10.008 8.232l0.078 0.011c5.069 0.845 8.55 0.768 14.874 0.614 2.995-0.077 6.861-0.154 12.211-0.205 0 0 0.001 0 0.001 0 7.36 0 13.338-5.916 13.439-13.251v-0.010c0-0.008 0-0.017 0-0.027 0-7.253-5.88-13.133-13.133-13.133-0.063 0-0.126 0-0.189 0.001h0.010c-4.647 0.026-9.104 0.1-13.549 0.223l0.825-0.018c-5.709 0.128-7.296 0.154-9.651-0.256-0.695-0.127-1.494-0.199-2.31-0.199-6.562 0-12.029 4.685-13.241 10.892l-0.014 0.085c-0.143 0.721-0.225 1.551-0.225 2.399 0 1.669 0.318 3.264 0.896 4.728l-0.030-0.087zM288.486 543.77c27.497 70.082 83.468 123.835 153.288 147.748l1.771 0.527c1.29 0.451 2.778 0.711 4.326 0.711 5.829 0 10.796-3.689 12.693-8.86l0.030-0.094c0.478-1.303 0.755-2.807 0.755-4.375 0-5.741-3.705-10.616-8.855-12.365l-0.092-0.027c-64.142-21.909-114.289-70.072-138.4-131.334l-0.531-1.53c-1.999-4.983-6.79-8.438-12.388-8.438-1.742 0-3.406 0.335-4.931 0.943l0.090-0.032c-5.075 1.946-8.612 6.779-8.612 12.437 0 1.685 0.314 3.297 0.886 4.78l-0.031-0.091z" />
<glyph unicode="&#xe92d;" glyph-name="left" d="M847.433 448.731l-240.786 240.055c-13.819 13.325-22.401 32-22.401 52.68 0 40.396 32.747 73.143 73.143 73.143 20.607 0 39.223-8.522 52.518-22.233l0.018-0.019 292.571-291.621c13.275-13.243 21.488-31.555 21.488-51.785 0-20.158-8.154-38.411-21.344-51.641l-292.57-293.52c-13.149-12.748-31.102-20.607-50.891-20.607-40.396 0-73.143 32.747-73.143 73.143 0 19.716 7.801 37.61 20.484 50.764l-0.021-0.022 240.933 241.737z" />
</font>
</defs>
</svg>
