<svg xmlns="http://www.w3.org/2000/svg" width="121.187" height="118.447" viewBox="0 0 121.187 118.447">
  <g id="Group_8" data-name="Group 8" transform="translate(-3803.437 -3265.767)">
    <g id="Group_6" data-name="Group 6" transform="translate(3827.288 3265.767)">
      <path id="Path_6" data-name="Path 6" d="M4046.068,3338.93a36.582,36.582,0,1,1,36.582-36.582A36.658,36.658,0,0,1,4046.068,3338.93Zm0-66.717a30.135,30.135,0,1,0,30.135,30.135A30.193,30.193,0,0,0,4046.068,3272.213Z" transform="translate(-4009.486 -3265.767)"/>
    </g>
    <g id="Group_7" data-name="Group 7" transform="translate(3803.437 3329.402)">
      <path id="Path_7" data-name="Path 7" d="M3921.078,3870.332h-90.084a3.223,3.223,0,0,1,0-6.446h86.861a53.466,53.466,0,0,0-23.045-40.933,46.1,46.1,0,0,1-61.883,0,53.824,53.824,0,0,0-23.045,44.156,3.223,3.223,0,0,1-6.446,0,60.2,60.2,0,0,1,28.2-51.085,3.194,3.194,0,0,1,4.029.483,39.691,39.691,0,0,0,56.726,0,3.194,3.194,0,0,1,4.029-.483,60.571,60.571,0,0,1,28.2,51.085A3.774,3.774,0,0,1,3921.078,3870.332Z" transform="translate(-3803.437 -3815.521)"/>
    </g>
  </g>
</svg>
