<svg xmlns="http://www.w3.org/2000/svg" width="105.163" height="151.115" viewBox="0 0 105.163 151.115">
  <path id="Path_19" data-name="Path 19" d="M212.766,189.634a32.133,32.133,0,0,1-9.992-23.231V137.78a39.04,39.04,0,0,0-27.218-37.157V90.412a11.753,11.753,0,1,0-23.506,0v10.21a39.039,39.039,0,0,0-27.218,37.157V166.4a32.134,32.134,0,0,1-9.992,23.231,11.582,11.582,0,0,0,7.965,19.991h20.85a20.149,20.149,0,1,0,40.3,0H204.8a11.582,11.582,0,0,0,7.966-19.991Zm-54-99.221a5.037,5.037,0,1,1,10.074,0v8.731a37.886,37.886,0,0,0-10.074,0ZM163.8,223.058a13.448,13.448,0,0,1-13.433-13.433h26.865A13.448,13.448,0,0,1,163.8,223.058Zm45.519-23.213a4.764,4.764,0,0,1-4.521,3.065h-82a4.866,4.866,0,0,1-3.347-8.4A38.885,38.885,0,0,0,131.547,166.4V137.78a32.255,32.255,0,0,1,64.511,0V166.4a38.887,38.887,0,0,0,12.089,28.108A4.763,4.763,0,0,1,209.321,199.844Z" transform="translate(-111.221 -78.659)"/>
</svg>
