<svg xmlns="http://www.w3.org/2000/svg" width="77.994" height="118.623" viewBox="0 0 77.994 118.623">
  <g id="Group_9" data-name="Group 9" transform="translate(-130.692 -498)">
    <g id="Group_5" data-name="Group 5" transform="translate(130.692 498)">
      <path id="Path_1" data-name="Path 1" d="M2739.114,959.931h0v-.487a2.892,2.892,0,0,0-1.3-1.787c-1.463-1.625-4.712-4.875-11.537-11.7l-12.187-12.187-.325-.325h-.162c-.162,0-.162-.163-.325-.163h-.162c-.163,0-.163,0-.325-.162h-49.234a2.5,2.5,0,0,0-2.437,2.437V1049.3a2.451,2.451,0,0,0,1.462,2.275,2.923,2.923,0,0,0,2.6-.325l5.687-5.2,5.687,5.037a2.471,2.471,0,0,0,3.25,0l5.687-5.037,5.687,5.037a2.471,2.471,0,0,0,3.25,0l5.687-5.037,5.687,5.037a2.471,2.471,0,0,0,3.25,0l5.687-5.037,5.687,5.037a2.471,2.471,0,0,0,3.25,0l5.687-5.037,5.687,5.037a2.887,2.887,0,0,0,1.625.65,2.062,2.062,0,0,0,.975-.162,2.548,2.548,0,0,0,1.462-2.275V959.931Zm-8.287-2.437h-16.086V941.407Zm.163,83.519a2.471,2.471,0,0,0-3.25,0l-5.687,5.037-5.687-5.037a2.471,2.471,0,0,0-3.25,0l-5.687,5.037-5.687-5.037a2.471,2.471,0,0,0-3.25,0l-5.687,5.037-5.687-5.037a2.471,2.471,0,0,0-3.25,0l-5.687,5.037-5.687-5.037a2.356,2.356,0,0,0-3.25,0l-3.25,2.925V937.995h43.872v21.936a2.5,2.5,0,0,0,2.437,2.437h21.936v81.569Zm-4.062-11.212a2.5,2.5,0,0,1-2.437,2.437h-48.746a2.437,2.437,0,1,1,0-4.875h48.746A2.5,2.5,0,0,1,2726.928,1029.8Z" transform="translate(-2661.12 -933.12)"/>
      <g id="Group_1" data-name="Group 1" transform="translate(21.936 56.871)">
        <path id="Path_2" data-name="Path 2" d="M3625.925,3357.195h-29.248a2.437,2.437,0,0,1,0-4.875h29.248a2.437,2.437,0,1,1,0,4.875Z" transform="translate(-3594.24 -3352.32)"/>
      </g>
      <g id="Group_2" data-name="Group 2" transform="translate(21.936 45.963)">
        <path id="Path_3" data-name="Path 3" d="M3625.925,2893.195h-29.248a2.437,2.437,0,0,1,0-4.875h29.248a2.437,2.437,0,1,1,0,4.875Z" transform="translate(-3594.24 -2888.32)"/>
      </g>
      <g id="Group_3" data-name="Group 3" transform="translate(21.936 66.909)">
        <path id="Path_4" data-name="Path 4" d="M3625.925,3784.195h-29.248a2.437,2.437,0,0,1,0-4.875h29.248a2.437,2.437,0,1,1,0,4.875Z" transform="translate(-3594.24 -3779.32)"/>
      </g>
      <g id="Group_4" data-name="Group 4" transform="translate(21.936 76.806)">
        <path id="Path_5" data-name="Path 5" d="M3625.925,4205.195h-29.248a2.438,2.438,0,0,1,0-4.875h29.248a2.437,2.437,0,1,1,0,4.875Z" transform="translate(-3594.24 -4200.32)"/>
      </g>
    </g>
  </g>
</svg>
