<svg xmlns="http://www.w3.org/2000/svg" width="133.777" height="103.306" viewBox="0 0 133.777 103.306">
  <path id="Path_3" data-name="Path 3" d="M154.623,192.742a9.244,9.244,0,0,0-8.324,5.648h-32.85a3.783,3.783,0,0,0-3.27,2.824l-6.54,23.931L87.883,143.839a3.213,3.213,0,0,0-3.27-2.676h0a3.343,3.343,0,0,0-3.27,2.824L69.005,207.606l-8.473-25.715a3.53,3.53,0,0,0-2.973-2.378A3.1,3.1,0,0,0,54.29,181L44.628,198.39H33.183a3.729,3.729,0,0,0,0,7.432H46.56a3.27,3.27,0,0,0,2.973-1.784L56.371,191.4l10.256,30.769a3.348,3.348,0,0,0,3.419,2.378,3.484,3.484,0,0,0,3.121-2.676l11.445-59.159,15.162,78.631c.3,1.486,1.635,3.122,3.27,3.122h.149a3.783,3.783,0,0,0,3.27-2.824l9.513-35.823h30.769a8.763,8.763,0,0,0,7.878,4.905,9.073,9.073,0,0,0,8.919-9.067A8.945,8.945,0,0,0,154.623,192.742Z" transform="translate(-29.764 -141.163)"/>
</svg>
