<svg xmlns="http://www.w3.org/2000/svg" width="90.266" height="129.709" viewBox="0 0 90.266 129.709">
  <g id="Group_4" data-name="Group 4" transform="translate(-111.221 -78.659)">
    <path id="Path_20" data-name="Path 20" d="M198.382,173.914a27.582,27.582,0,0,1-8.577-19.94V129.406a33.51,33.51,0,0,0-23.363-31.894V88.748a10.088,10.088,0,1,0-20.177,0v8.764A33.509,33.509,0,0,0,122.9,129.406v24.568a27.583,27.583,0,0,1-8.577,19.94,9.941,9.941,0,0,0,6.837,17.16h17.9a17.295,17.295,0,1,0,34.589,0h17.9a9.942,9.942,0,0,0,6.837-17.16ZM152.03,88.748a4.324,4.324,0,1,1,8.647,0v7.495a32.519,32.519,0,0,0-8.647,0ZM156.354,202.6a11.543,11.543,0,0,1-11.53-11.53h23.059A11.543,11.543,0,0,1,156.354,202.6Zm39.071-19.925a4.089,4.089,0,0,1-3.88,2.63H121.163a4.176,4.176,0,0,1-2.873-7.209,33.377,33.377,0,0,0,10.377-24.126V129.406a27.686,27.686,0,1,1,55.373,0v24.568A33.379,33.379,0,0,0,194.417,178.1,4.088,4.088,0,0,1,195.425,182.678Z"/>
    <path id="Path_21" data-name="Path 21" d="M288.088,269.328a3.052,3.052,0,0,1-3.051-3.051V223.561a3.051,3.051,0,0,1,6.1,0v42.716A3.052,3.052,0,0,1,288.088,269.328Z" transform="translate(-131.734 -107.508)"/>
    <rect id="Rectangle_1" data-name="Rectangle 1" width="6.102" height="6.102" transform="translate(153.303 167.923)"/>
  </g>
</svg>
