<svg xmlns="http://www.w3.org/2000/svg" width="140.443" height="140.443" viewBox="0 0 140.443 140.443">
  <path id="Path_4" data-name="Path 4" d="M.009,193.527A70.221,70.221,0,1,1,70.23,263.749,70.221,70.221,0,0,1,.009,193.527Zm8.778,0A61.444,61.444,0,1,0,70.23,132.083,61.444,61.444,0,0,0,8.787,193.527Zm54.99,39.565V221.949H74.819v11.143Zm.112-21.966a31.28,31.28,0,0,1,1.337-10.768,27.239,27.239,0,0,1,6.75-7.93,118.335,118.335,0,0,0,7.555-9.642,14.356,14.356,0,0,0,2.245-8.146,11.876,11.876,0,0,0-3.026-8.732,11.649,11.649,0,0,0-8.651-3.055,13.166,13.166,0,0,0-8.306,2.653c-2.284,1.769-3.428,6.7-3.428,10.127H48.286l-.165-.323c-.1-5.749,1.922-12.69,6.083-16.153a24,24,0,0,1,15.887-5.2q10.553,0,16.39,5.385a19.4,19.4,0,0,1,5.842,15.027,22.521,22.521,0,0,1-3.776,12.644,70.469,70.469,0,0,1-10,11.731,12.576,12.576,0,0,0-3.511,5.2,30.3,30.3,0,0,0-.616,7.178Z" transform="translate(-0.009 -123.306)"/>
</svg>
