<svg xmlns="http://www.w3.org/2000/svg" width="116.39" height="116.39" viewBox="0 0 116.39 116.39">
  <g id="Group_7" data-name="Group 7" transform="translate(-220.06 -114.061)">
    <g id="Group_6" data-name="Group 6" transform="translate(167.675 12.782)">
      <path id="Path_24" data-name="Path 24" d="M110.58,101.279a58.2,58.2,0,1,0,58.195,58.2h0A58.266,58.266,0,0,0,110.58,101.279Zm2.825,110.67V199.575a2.825,2.825,0,0,0-5.65,0v12.373A52.616,52.616,0,0,1,58.105,162.3H70.479a2.825,2.825,0,0,0,0-5.65H58.105A52.616,52.616,0,0,1,107.755,107v12.373a2.825,2.825,0,0,0,5.65,0V107a52.615,52.615,0,0,1,49.649,49.649H150.681a2.825,2.825,0,1,0,0,5.65h12.373A52.616,52.616,0,0,1,113.4,211.949Z"/>
      <path id="Path_25" data-name="Path 25" d="M320.786,263.324c.921-.5,3.955-3.3,3.351-4.426l-.488-.907c-.6-1.123-4.618-.136-5.54.36l-36.668,19.739,2.661,4.969Z" transform="translate(-175.705 -118.133)" stroke="#000" stroke-miterlimit="10" stroke-width="1"/>
      <path id="Path_26" data-name="Path 26" d="M284.982,239.417l-10.663,25.515c-.24.572.761,1.534,2.231,2.148l1.189.5c1.472.613,2.856.648,3.1.076l10.66-25.516c.24-.57-.033-3.264-1.505-3.878l-1.189-.5C287.329,237.147,285.22,238.843,284.982,239.417Z" transform="translate(-170.246 -102.996)" stroke="#000" stroke-miterlimit="10" stroke-width="1"/>
    </g>
  </g>
</svg>
