<svg xmlns="http://www.w3.org/2000/svg" width="183.725" height="73.472" viewBox="0 0 183.725 73.472">
  <g id="Group_11" data-name="Group 11" transform="translate(-889.305 -2084.4)">
    <path id="Path_15" data-name="Path 15" d="M3417.15,2121.136l9.184-7.2a9.193,9.193,0,1,0-11.353-14.463l-3.543,2.784v-8.678a9.184,9.184,0,1,0-18.368,0v8.678l-3.543-2.784a9.193,9.193,0,0,0-11.354,14.463l9.184,7.2-9.184,7.2a9.383,9.383,0,0,0-1.555,12.908c3.941,5.6,11.209,2.893,12.908,1.555l3.543-2.784v8.678a9.184,9.184,0,1,0,18.368,0v-8.678l3.543,2.784c1.7,1.3,8.822,3.616,12.908-1.555a9.2,9.2,0,0,0-1.555-12.908Z" transform="translate(-2418.784)"/>
    <path id="Path_16" data-name="Path 16" d="M931.8,2121.136l9.184-7.2a9.193,9.193,0,1,0-11.353-14.463l-3.543,2.784v-8.678a9.184,9.184,0,1,0-18.368,0v8.678l-3.543-2.784a9.193,9.193,0,1,0-11.353,14.463l9.22,7.2-9.184,7.2a9.383,9.383,0,0,0-1.555,12.908c3.941,5.6,11.209,2.893,12.908,1.555l3.543-2.784v8.678a9.184,9.184,0,1,0,18.368,0v-8.678l3.543,2.784c1.7,1.3,8.822,3.616,12.908-1.555a9.2,9.2,0,0,0-1.555-12.908Z"/>
    <path id="Path_17" data-name="Path 17" d="M6071.236,4141.8h-27.552a9.184,9.184,0,0,0,0,18.368h27.552a9.184,9.184,0,0,0,0-18.368Z" transform="translate(-5007.39 -2002.296)"/>
  </g>
</svg>
