<svg xmlns="http://www.w3.org/2000/svg" width="142.197" height="141.923" viewBox="0 0 142.197 141.923">
  <g id="Group_5" data-name="Group 5" transform="translate(117.271 -212.996)">
    <path id="Path_22" data-name="Path 22" d="M24.814,276.019l-.162-1.944-13.285-4.7a62.973,62.973,0,0,0-6.319-15.229l6.156-12.8-1.3-1.62A75.06,75.06,0,0,0-1.432,228.388l-1.62-1.3-12.8,6.157a59.4,59.4,0,0,0-15.229-6.319l-4.7-13.285-1.944-.162a66.408,66.408,0,0,0-16.039,0l-1.944.162-4.7,13.285a62.96,62.96,0,0,0-15.229,6.319l-12.8-6.157-1.62,1.3a75.072,75.072,0,0,0-11.341,11.341l-1.3,1.62,6.156,12.8a59.409,59.409,0,0,0-6.319,15.229l-13.285,4.7-.162,1.944a26.663,26.663,0,0,0-.972,7.939,65.235,65.235,0,0,0,.486,7.939l.162,1.944,13.285,4.7a62.951,62.951,0,0,0,6.319,15.229l-6.157,12.8,1.3,1.62a75.082,75.082,0,0,0,11.341,11.341l1.62,1.3,12.8-6.157a59.387,59.387,0,0,0,15.229,6.319l4.7,13.285,1.944.162a67.331,67.331,0,0,0,7.939.486,65.3,65.3,0,0,0,7.939-.486l1.944-.162,4.7-13.285A62.958,62.958,0,0,0-16.5,334.668l12.8,6.157,1.62-1.3a75.068,75.068,0,0,0,11.34-11.341l1.3-1.62L4.4,313.768a59.4,59.4,0,0,0,6.319-15.229L24,293.841l.162-1.944a67.267,67.267,0,0,0,.486-7.939C24.652,281.366,25.138,278.612,24.814,276.019ZM18.658,289.3l-12.8,4.536-.324,1.782a50.948,50.948,0,0,1-6.8,16.525l-.972,1.458,5.832,12.313a64.731,64.731,0,0,1-7.453,7.453l-12.313-5.833-1.458.972a50.948,50.948,0,0,1-16.525,6.8l-1.782.324-4.536,12.8a81.217,81.217,0,0,1-10.855.162l-4.536-12.8-1.782-.324a50.925,50.925,0,0,1-16.525-6.8l-1.458-.972-12.313,5.832a64.757,64.757,0,0,1-7.453-7.453l5.832-12.313-.972-1.458a50.943,50.943,0,0,1-6.8-16.525L-97.667,294l-12.8-4.536a33.313,33.313,0,0,1-.324-5.509c0-1.782,0-3.4.162-5.346l12.8-4.536.324-1.782a50.935,50.935,0,0,1,6.8-16.525l.972-1.458L-95.561,242a64.734,64.734,0,0,1,7.453-7.453l12.313,5.832,1.458-.972a50.952,50.952,0,0,1,16.525-6.8l1.782-.324,4.536-12.8a57.14,57.14,0,0,1,10.531,0l4.536,12.8,1.782.324a50.949,50.949,0,0,1,16.525,6.8l1.458.972,12.313-5.832A64.753,64.753,0,0,1,3.1,242L-2.728,254.31l.972,1.458a50.953,50.953,0,0,1,6.8,16.525l.324,1.782,12.8,4.536a15.6,15.6,0,0,1,.648,5.346C18.82,285.74,18.82,287.36,18.658,289.3Z" transform="translate(0)"/>
    <path id="Path_23" data-name="Path 23" d="M36.335,324.909a40.5,40.5,0,1,0,40.5,40.5A40.518,40.518,0,0,0,36.335,324.909Zm0,74.526a34.023,34.023,0,1,1,34.023-34.023A34.018,34.018,0,0,1,36.335,399.435Z" transform="translate(-82.321 -81.454)"/>
  </g>
</svg>
