<svg xmlns="http://www.w3.org/2000/svg" width="98.456" height="114.865" viewBox="0 0 98.456 114.865">
  <g id="Group_10" data-name="Group 10" transform="translate(-3622.484 -2678.231)">
    <circle id="Ellipse_1" data-name="Ellipse 1" cx="2.735" cy="2.735" r="2.735" transform="translate(3696.325 2776.691)"/>
    <path id="Path_8" data-name="Path 8" d="M3668.977,2771.217h-41.023V2683.7h71.107v57.432a2.735,2.735,0,1,0,5.469,0v-60.167a2.733,2.733,0,0,0-2.731-2.735h-76.58a2.734,2.734,0,0,0-2.735,2.732v92.989a2.733,2.733,0,0,0,2.731,2.735h43.761a2.735,2.735,0,0,0,0-5.47Z"/>
    <path id="Path_9" data-name="Path 9" d="M4671.493,3840.758a2.733,2.733,0,0,0-2.735,2.732v8.208a2.735,2.735,0,1,0,5.47,0v-8.2a2.733,2.733,0,0,0-2.731-2.735Z" transform="translate(-972.432 -1080.481)"/>
    <path id="Path_10" data-name="Path 10" d="M4419.381,3685.754a21.879,21.879,0,1,0,21.879,21.879A21.879,21.879,0,0,0,4419.381,3685.754Zm0,38.288a16.409,16.409,0,1,1,16.409-16.409A16.409,16.409,0,0,1,4419.381,3724.042Z" transform="translate(-720.321 -936.417)"/>
    <path id="Path_11" data-name="Path 11" d="M3901.482,2910.737h-43.758a2.735,2.735,0,1,0,0,5.469h43.758a2.735,2.735,0,0,0,0-5.469Z" transform="translate(-216.096 -216.097)"/>
    <path id="Path_12" data-name="Path 12" d="M3901.482,3143.242h-43.758a2.735,2.735,0,1,0,0,5.47h43.758a2.735,2.735,0,0,0,0-5.47Z" transform="translate(-216.096 -432.193)"/>
    <path id="Path_13" data-name="Path 13" d="M3901.482,3375.747h-43.758a2.735,2.735,0,1,0,0,5.47h43.758a2.735,2.735,0,0,0,0-5.47Z" transform="translate(-216.096 -648.289)"/>
    <path id="Path_14" data-name="Path 14" d="M3885.073,3608.252h-27.349a2.735,2.735,0,0,0,0,5.47h27.349a2.735,2.735,0,0,0,0-5.47Z" transform="translate(-216.096 -864.384)"/>
  </g>
</svg>
